<svg width="45" height="45" viewBox="0 0 45 45" fill="none" xmlns="http://www.w3.org/2000/svg">
<circle cx="22.5" cy="22.5" r="22.5" fill="#84BB2F"/>
<path d="M10.8106 20.2281V25.1001H8.84256V16.5801H10.3786L14.3506 21.5841V16.5801H16.3186V25.1001H14.7346L10.8106 20.2281ZM23.936 23.3721V25.1001H17.948V16.5801H23.828V18.3081H19.916V19.9641H23.276V21.5601H19.916V23.3721H23.936ZM27.9636 16.5921H29.7756L30.6396 19.3161L31.5036 16.5921H33.3276L31.8996 20.5521L32.7636 22.8441L34.8996 16.5801H37.0476L33.6396 25.1001H31.9956L30.6396 21.7641L29.2956 25.1001H27.6396L24.2436 16.5801H26.3796L28.5276 22.8441L29.3676 20.5521L27.9636 16.5921Z" fill="black"/>
</svg>
