<svg width="45" height="45" viewBox="0 0 45 45" fill="none" xmlns="http://www.w3.org/2000/svg">
<circle cx="22.5" cy="22.5" r="22.5" fill="#A01862"/>
<path d="M7.61356 22.204V20.51H11.8556V22.204H7.61356ZM13.0211 25.2C13.0211 24.78 13.0537 24.402 13.1191 24.066C13.1844 23.7206 13.2964 23.4033 13.4551 23.114C13.6231 22.8246 13.8471 22.554 14.1271 22.302C14.4164 22.05 14.7804 21.8026 15.2191 21.56C15.6017 21.3546 15.9377 21.1773 16.2271 21.028C16.5257 20.8693 16.7731 20.7246 16.9691 20.594C17.1651 20.4633 17.3144 20.3326 17.4171 20.202C17.5197 20.062 17.5711 19.9033 17.5711 19.726C17.5711 19.446 17.4591 19.208 17.2351 19.012C17.0111 18.8066 16.6891 18.704 16.2691 18.704C16.0451 18.704 15.8397 18.7366 15.6531 18.802C15.4664 18.858 15.2891 18.9373 15.1211 19.04C14.9624 19.1426 14.8131 19.2593 14.6731 19.39C14.5424 19.5113 14.4211 19.642 14.3091 19.782L13.1051 18.396C13.2264 18.2653 13.3991 18.1253 13.6231 17.976C13.8471 17.8173 14.1084 17.6726 14.4071 17.542C14.7151 17.402 15.0511 17.29 15.4151 17.206C15.7884 17.1126 16.1851 17.066 16.6051 17.066C17.0811 17.066 17.5057 17.1266 17.8791 17.248C18.2524 17.36 18.5651 17.5233 18.8171 17.738C19.0784 17.9433 19.2744 18.1953 19.4051 18.494C19.5451 18.7833 19.6151 19.1006 19.6151 19.446C19.6151 19.7726 19.5544 20.062 19.4331 20.314C19.3117 20.566 19.1577 20.79 18.9711 20.986C18.7844 21.182 18.5791 21.3546 18.3551 21.504C18.1404 21.644 17.9304 21.77 17.7251 21.882C17.5571 21.9753 17.3657 22.0826 17.1511 22.204C16.9364 22.3253 16.7217 22.4606 16.5071 22.61C16.3017 22.75 16.1104 22.8993 15.9331 23.058C15.7557 23.2073 15.6204 23.3566 15.5271 23.506H19.7691V25.2H13.0211ZM28.3014 21.098C28.3014 21.714 28.2081 22.2833 28.0214 22.806C27.8441 23.3193 27.5921 23.7673 27.2654 24.15C26.9481 24.5233 26.5654 24.8173 26.1174 25.032C25.6787 25.2373 25.2027 25.34 24.6894 25.34C24.1667 25.34 23.6861 25.2373 23.2474 25.032C22.8087 24.8173 22.4261 24.5233 22.0994 24.15C21.7821 23.7673 21.5301 23.3193 21.3434 22.806C21.1661 22.2833 21.0774 21.714 21.0774 21.098C21.0774 20.482 21.1661 19.9173 21.3434 19.404C21.5301 18.8813 21.7821 18.4333 22.0994 18.06C22.4261 17.6773 22.8087 17.3786 23.2474 17.164C23.6861 16.9493 24.1667 16.842 24.6894 16.842C25.2027 16.842 25.6787 16.9493 26.1174 17.164C26.5654 17.3786 26.9481 17.6773 27.2654 18.06C27.5921 18.4333 27.8441 18.8813 28.0214 19.404C28.2081 19.9173 28.3014 20.482 28.3014 21.098ZM26.4114 21.098C26.4114 20.7246 26.3694 20.384 26.2854 20.076C26.2014 19.7586 26.0801 19.488 25.9214 19.264C25.7721 19.04 25.5901 18.8673 25.3754 18.746C25.1701 18.6246 24.9414 18.564 24.6894 18.564C24.4281 18.564 24.1901 18.6246 23.9754 18.746C23.7701 18.8673 23.5881 19.04 23.4294 19.264C23.2801 19.488 23.1634 19.7586 23.0794 20.076C22.9954 20.384 22.9534 20.7246 22.9534 21.098C22.9534 21.4713 22.9954 21.812 23.0794 22.12C23.1634 22.428 23.2801 22.694 23.4294 22.918C23.5881 23.142 23.7701 23.3146 23.9754 23.436C24.1901 23.5573 24.4281 23.618 24.6894 23.618C24.9414 23.618 25.1701 23.5573 25.3754 23.436C25.5901 23.3146 25.7721 23.142 25.9214 22.918C26.0801 22.694 26.2014 22.428 26.2854 22.12C26.3694 21.812 26.4114 21.4713 26.4114 21.098ZM31.791 19.362C31.4643 19.362 31.161 19.306 30.881 19.194C30.601 19.082 30.3583 18.9326 30.153 18.746C29.9477 18.55 29.7843 18.326 29.663 18.074C29.5417 17.8126 29.481 17.5326 29.481 17.234C29.481 16.9446 29.5417 16.6693 29.663 16.408C29.7843 16.1466 29.9477 15.9226 30.153 15.736C30.3583 15.5493 30.601 15.4 30.881 15.288C31.161 15.176 31.4643 15.12 31.791 15.12C32.1083 15.12 32.407 15.176 32.687 15.288C32.9763 15.4 33.2237 15.5493 33.429 15.736C33.6343 15.9226 33.7977 16.1466 33.919 16.408C34.0403 16.6693 34.101 16.9446 34.101 17.234C34.101 17.5326 34.0403 17.8126 33.919 18.074C33.7977 18.326 33.6343 18.55 33.429 18.746C33.2237 18.9326 32.9763 19.082 32.687 19.194C32.407 19.306 32.1083 19.362 31.791 19.362ZM31.791 18.424C31.931 18.424 32.057 18.3913 32.169 18.326C32.2903 18.2606 32.3977 18.1766 32.491 18.074C32.5843 17.962 32.6543 17.836 32.701 17.696C32.757 17.5466 32.785 17.3926 32.785 17.234C32.785 16.9073 32.687 16.632 32.491 16.408C32.295 16.1746 32.0617 16.058 31.791 16.058C31.651 16.058 31.5203 16.0906 31.399 16.156C31.287 16.2213 31.1843 16.31 31.091 16.422C30.9977 16.5246 30.923 16.646 30.867 16.786C30.8203 16.926 30.797 17.0753 30.797 17.234C30.797 17.5606 30.895 17.8406 31.091 18.074C31.287 18.3073 31.5203 18.424 31.791 18.424ZM37.195 25.34C36.8683 25.34 36.565 25.284 36.285 25.172C36.005 25.06 35.7624 24.9106 35.557 24.724C35.3517 24.5373 35.1884 24.318 35.067 24.066C34.9457 23.8046 34.885 23.5246 34.885 23.226C34.885 22.9273 34.9457 22.652 35.067 22.4C35.1884 22.1386 35.3517 21.9146 35.557 21.728C35.7624 21.532 36.005 21.378 36.285 21.266C36.565 21.154 36.8683 21.098 37.195 21.098C37.5217 21.098 37.825 21.154 38.105 21.266C38.385 21.378 38.6277 21.532 38.833 21.728C39.0477 21.9146 39.211 22.1386 39.323 22.4C39.4444 22.652 39.505 22.9273 39.505 23.226C39.505 23.5246 39.4444 23.8046 39.323 24.066C39.211 24.318 39.0477 24.5373 38.833 24.724C38.6277 24.9106 38.385 25.06 38.105 25.172C37.825 25.284 37.5217 25.34 37.195 25.34ZM37.195 24.402C37.335 24.402 37.461 24.3693 37.573 24.304C37.6944 24.2386 37.8017 24.1546 37.895 24.052C37.9884 23.94 38.0584 23.814 38.105 23.674C38.161 23.534 38.189 23.3846 38.189 23.226C38.189 23.058 38.161 22.904 38.105 22.764C38.049 22.6146 37.9744 22.4886 37.881 22.386C37.797 22.274 37.6944 22.19 37.573 22.134C37.4517 22.0686 37.3257 22.036 37.195 22.036C37.055 22.036 36.9244 22.0686 36.803 22.134C36.691 22.1993 36.5883 22.288 36.495 22.4C36.4017 22.5026 36.327 22.6286 36.271 22.778C36.2244 22.918 36.201 23.0673 36.201 23.226C36.201 23.5526 36.299 23.8326 36.495 24.066C36.691 24.29 36.9244 24.402 37.195 24.402ZM30.265 24.542L34.213 19.936L37.853 15.148L38.707 15.904L34.885 20.426L31.119 25.298L30.265 24.542Z" fill="white"/>
</svg>
