<svg width="53" height="59" viewBox="0 0 53 59" fill="none" xmlns="http://www.w3.org/2000/svg">
<path d="M26.4964 35.1953V33.6953H24.9964H21.9302H20.4302V35.1953V36.7284C20.4302 38.4036 21.7913 39.7615 23.4633 39.7615C25.1352 39.7615 26.4964 38.4036 26.4964 36.7284V35.1953Z" fill="#84BB2F" stroke="#84BB2F" stroke-width="3"/>
<path d="M17.9504 28.6829L17.9507 28.6831C19.1775 29.6038 20.0156 30.9516 20.312 32.4249L20.5543 33.6291H21.7826H25.1483H26.3768L26.6188 32.4247C26.9184 30.9343 27.7539 29.5977 28.9734 28.6836L28.9743 28.6829C31.2888 26.9452 32.628 24.2836 32.628 21.3973V19.8642C32.628 14.678 28.3114 10.4441 22.9739 10.7125L22.9713 10.7126C18.0822 10.9669 14.2969 15.3836 14.2969 20.3851V21.3972C14.2969 21.3973 14.2969 21.3973 14.2969 21.3973C14.2968 24.2836 15.636 26.9452 17.9504 28.6829ZM23.4292 16.798C23.4292 16.779 23.4434 16.7649 23.4623 16.7649C23.4813 16.7649 23.4955 16.779 23.4955 16.798V19.8642C23.4955 19.8832 23.4813 19.8973 23.4623 19.8973C23.4434 19.8973 23.4292 19.8832 23.4292 19.8642V16.798ZM23.4623 25.9635C23.4697 25.9635 23.473 25.9647 23.4748 25.9655C23.4777 25.9667 23.4817 25.9692 23.4858 25.9732C23.4899 25.9773 23.4922 25.9813 23.4935 25.9841C23.4942 25.986 23.4955 25.9892 23.4955 25.9966C23.4955 26.004 23.4943 26.0072 23.4935 26.009C23.4923 26.0119 23.4898 26.016 23.4857 26.0201C23.4816 26.0241 23.4776 26.0266 23.4747 26.0278C23.4729 26.0286 23.4697 26.0298 23.4623 26.0298C23.455 26.0298 23.4518 26.0286 23.4499 26.0278C23.4471 26.0266 23.443 26.0241 23.4389 26.0201C23.4348 26.016 23.4324 26.0119 23.4312 26.009C23.4304 26.0072 23.4292 26.004 23.4292 25.9966C23.4292 25.9893 23.4304 25.986 23.4312 25.9842C23.4324 25.9813 23.4348 25.9773 23.4389 25.9732C23.443 25.9692 23.447 25.9667 23.4499 25.9655C23.4518 25.9647 23.455 25.9635 23.4623 25.9635Z" fill="#84BB2F" stroke="#84BB2F" stroke-width="3"/>
<path d="M50.1399 29.9868L50.1376 29.9845L44.8937 24.7406V22.9305C44.8937 11.1127 35.281 1.5 23.4632 1.5C11.6454 1.5 2.03271 11.1127 2.03271 22.9305C2.03271 28.4995 4.25686 33.8603 8.16517 37.8534V53.797C8.16517 53.797 8.16517 53.7971 8.16517 53.7972C8.16506 55.4731 9.52245 56.8303 11.1982 56.8303H32.6618C34.3376 56.8303 35.6949 55.473 35.6949 53.7972V50.5956H41.8605C43.658 50.5956 44.8936 49.0089 44.8936 47.4603V37.0701L49.3493 34.8423C49.3493 34.8423 49.3494 34.8422 49.3494 34.8422C50.2196 34.4072 50.8299 33.5792 50.9855 32.6162C51.1451 31.6467 50.8213 30.6712 50.1399 29.9868ZM29.0131 28.7356L29.0124 28.7362C27.4958 29.8746 26.5987 31.6037 26.5635 33.4886C26.5601 33.5241 26.5577 33.5624 26.5569 33.6033L26.5563 33.6331L26.5569 33.6629C26.5576 33.6992 26.5596 33.7337 26.5624 33.7661V36.7285C26.5624 38.4362 25.1708 39.8278 23.4631 39.8278C21.7553 39.8278 20.3637 38.4362 20.3637 36.7285V33.6623C20.3637 31.6846 19.4694 29.904 17.9138 28.7362L17.9131 28.7356C15.5671 26.9768 14.2313 24.3079 14.2313 21.3974V20.3853C14.2313 15.2152 18.2252 10.8988 22.9582 10.6459C28.4539 10.4249 32.6949 14.6878 32.6949 19.8642V21.3974C32.6949 24.3079 31.359 26.9768 29.0131 28.7356ZM26.5624 33.6039C26.5624 33.6037 26.5624 33.6036 26.5624 33.6034V33.6039Z" fill="#84BB2F" stroke="#84BB2F" stroke-width="3"/>
<path d="M22.9316 21.5673C23.7782 21.5673 24.4647 20.8808 24.4647 20.0342V16.9679C24.4647 16.1212 23.7782 15.4348 22.9316 15.4348C22.0849 15.4348 21.3984 16.1212 21.3984 16.9679V20.0342C21.3984 20.8808 22.0849 21.5673 22.9316 21.5673Z" fill="black"/>
<path d="M22.9316 27.6998C23.7783 27.6998 24.4647 27.0134 24.4647 26.1667C24.4647 25.3199 23.7783 24.6335 22.9316 24.6335C22.0848 24.6335 21.3984 25.3199 21.3984 26.1667C21.3984 27.0134 22.0848 27.6998 22.9316 27.6998Z" fill="black"/>
<path d="M16.48 30.1062C17.6389 30.9758 18.3307 32.3466 18.3307 33.7731V36.8984C18.3307 39.4345 20.394 41.4977 22.93 41.4977C25.4661 41.4977 27.5294 39.4345 27.5294 36.8984V33.7731C27.5294 32.3466 28.2212 30.9758 29.3799 30.1063C32.1011 28.0644 33.6618 24.9521 33.6618 21.5673V20.0342C33.6618 14.1032 28.8621 9.30227 22.93 9.30237C16.8112 9.30237 12.1982 14.5949 12.1982 20.5546V21.5673C12.1982 24.9521 13.7588 28.0644 16.48 30.1062ZM22.93 38.4315C22.0847 38.4315 21.3969 37.7438 21.3969 36.8984V35.3653H24.4631V36.8984C24.4631 37.7438 23.7754 38.4315 22.93 38.4315ZM15.2645 20.5546C15.2645 16.0409 18.7032 12.3686 22.93 12.3686C27.1667 12.3686 30.5956 15.797 30.5956 20.0342V21.5673C30.5956 23.978 29.4818 26.1965 27.5397 27.6536C26.0153 28.7975 24.9769 30.4689 24.6099 32.2991H21.2501C20.8831 30.4689 19.8447 28.7975 18.3203 27.6536C16.3782 26.1965 15.2645 23.978 15.2645 21.5673V20.5546Z" fill="black"/>
<path d="M10.6656 55.5001H32.1292C32.9758 55.5001 33.6623 54.8136 33.6623 53.967V49.2654H41.3278C42.1745 49.2654 42.861 48.579 42.861 47.7323V36.3127L48.1459 33.6703C48.5867 33.4499 48.8947 33.0311 48.9736 32.5446C49.0525 32.0581 48.8928 31.5634 48.5443 31.2149L42.861 25.5315V23.1003C42.861 12.1106 33.9201 3.1698 22.9305 3.1698C11.9408 3.1698 3 12.1106 3 23.1003C3 28.6 5.27034 33.6919 9.13245 37.3995V53.967C9.13245 54.8136 9.81888 55.5001 10.6656 55.5001ZM6.06623 23.1003C6.06623 13.8013 13.6315 6.23603 22.9305 6.23603C32.2294 6.23603 39.7947 13.8013 39.7947 23.1003V26.1665C39.7947 26.5731 39.9563 26.963 40.2438 27.2505L44.8722 31.8789L40.6422 33.9939C40.1228 34.2537 39.7947 34.7844 39.7947 35.3652V46.1992H32.1292C31.2825 46.1992 30.596 46.8856 30.596 47.7323V52.4338H12.1987V36.7312C12.1987 36.296 12.0137 35.8813 11.6899 35.5904C8.116 32.3812 6.06623 27.8287 6.06623 23.1003Z" fill="black"/>
</svg>
