<svg width="59" height="59" viewBox="0 0 59 59" fill="none" xmlns="http://www.w3.org/2000/svg">
<path d="M25.9666 36.933V35.433H24.4666H21.4004H19.9004V36.933V43.0654V44.5654H21.4004H24.4666H25.9666V43.0654V36.933Z" fill="#84BB2F" stroke="#84BB2F" stroke-width="3"/>
<path d="M19.9004 27.7342V29.2342H21.4004H22.9335C24.6188 29.2342 25.9666 27.8706 25.9666 26.2011C25.9666 25.3974 25.6529 24.6299 25.0797 24.0581C23.3045 22.2781 19.9004 23.3348 19.9004 26.2011V27.7342Z" fill="#84BB2F" stroke="#84BB2F" stroke-width="3"/>
<path d="M18.3309 29.2343H19.8309V27.7343V26.2012C19.8309 24.5159 18.4672 23.1681 16.7978 23.1681C15.1125 23.1681 13.7646 24.5318 13.7646 26.2012C13.7646 27.8865 15.1283 29.2343 16.7978 29.2343H18.3309Z" fill="#84BB2F" stroke="#84BB2F" stroke-width="3"/>
<path d="M1.5 15.2649V16.7649H3H55.3303H56.8303V15.2649V7.59934C56.8303 4.23474 54.0955 1.5 50.7309 1.5H7.59934C4.23473 1.5 1.5 4.23474 1.5 7.59934V15.2649ZM10.6656 10.6987C10.6582 10.6987 10.655 10.6975 10.6532 10.6967C10.6503 10.6955 10.6463 10.6931 10.6422 10.689C10.6381 10.6849 10.6357 10.6808 10.6344 10.678C10.6336 10.6761 10.6325 10.6729 10.6325 10.6656C10.6325 10.6582 10.6337 10.6549 10.6344 10.6531C10.6357 10.6502 10.6381 10.6462 10.6421 10.6421C10.6462 10.6381 10.6502 10.6357 10.6531 10.6345C10.6549 10.6337 10.6582 10.6325 10.6656 10.6325C10.6729 10.6325 10.6762 10.6337 10.6781 10.6345C10.6809 10.6357 10.685 10.6381 10.689 10.6421C10.6931 10.6462 10.6955 10.6502 10.6967 10.6531C10.6975 10.6549 10.6987 10.6582 10.6987 10.6656C10.6987 10.6729 10.6975 10.6761 10.6967 10.678C10.6955 10.6808 10.6931 10.6849 10.689 10.689C10.6849 10.6931 10.6808 10.6955 10.678 10.6967C10.6761 10.6975 10.6729 10.6987 10.6656 10.6987ZM16.798 10.6987C16.7907 10.6987 16.7875 10.6975 16.7856 10.6967C16.7827 10.6955 16.7787 10.6931 16.7746 10.689C16.7705 10.6849 16.7681 10.6808 16.7669 10.678C16.7661 10.6761 16.7649 10.6729 16.7649 10.6656C16.7649 10.6582 16.7661 10.6549 16.7669 10.6531C16.7681 10.6502 16.7705 10.6462 16.7746 10.6421C16.7786 10.6381 16.7826 10.6357 16.7855 10.6345C16.7874 10.6337 16.7906 10.6325 16.798 10.6325C16.8054 10.6325 16.8086 10.6337 16.8105 10.6345C16.8134 10.6357 16.8174 10.6381 16.8215 10.6421C16.8255 10.6462 16.8279 10.6502 16.8291 10.6531C16.8299 10.6549 16.8311 10.6582 16.8311 10.6656C16.8311 10.6729 16.8299 10.6761 16.8291 10.678C16.8279 10.6808 16.8255 10.6849 16.8214 10.689C16.8173 10.6931 16.8133 10.6955 16.8104 10.6967C16.8085 10.6975 16.8053 10.6987 16.798 10.6987ZM22.9305 10.6987C22.9232 10.6987 22.92 10.6975 22.9181 10.6967C22.9152 10.6955 22.9112 10.6931 22.9071 10.689C22.903 10.6849 22.9006 10.6808 22.8993 10.678C22.8985 10.6761 22.8974 10.6729 22.8974 10.6656C22.8974 10.6582 22.8986 10.6549 22.8994 10.6531C22.9006 10.6502 22.903 10.6462 22.907 10.6421C22.9111 10.6381 22.9151 10.6357 22.918 10.6345C22.9199 10.6337 22.9231 10.6325 22.9305 10.6325C22.9379 10.6325 22.9411 10.6337 22.943 10.6345C22.9459 10.6357 22.9499 10.6381 22.9539 10.6421C22.9557 10.6439 22.9571 10.6456 22.9583 10.6473C22.9598 10.6494 22.9609 10.6514 22.9616 10.6531C22.9624 10.6549 22.9636 10.6582 22.9636 10.6656C22.9636 10.6729 22.9624 10.6761 22.9616 10.678C22.9604 10.6808 22.958 10.6849 22.9539 10.689C22.9498 10.6931 22.9457 10.6955 22.9429 10.6967C22.941 10.6975 22.9378 10.6987 22.9305 10.6987Z" fill="#84BB2F" stroke="#84BB2F" stroke-width="3"/>
<path d="M19.8309 36.933V35.433H18.3309H15.2646H13.7646V36.933V43.0654V44.5654H15.2646H18.3309H19.8309V43.0654V36.933Z" fill="#84BB2F" stroke="#84BB2F" stroke-width="3"/>
<path d="M12.1982 29.3005H10.6982V30.8005V33.8668V35.3668H12.1982H12.2114H12.2245H12.2376H12.2506H12.2637H12.2768H12.2898H12.3028H12.3159H12.3289H12.3419H12.3549H12.3678H12.3808H12.3938H12.4067H12.4196H12.4325H12.4455H12.4584H12.4712H12.4841H12.497H12.5098H12.5227H12.5355H12.5483H12.5611H12.5739H12.5867H12.5995H12.6123H12.625H12.6378H12.6505H12.6632H12.676H12.6887H12.7014H12.714H12.7267H12.7394H12.752H12.7647H12.7773H12.7899H12.8026H12.8152H12.8278H12.8403H12.8529H12.8655H12.878H12.8906H12.9031H12.9157H12.9282H12.9407H12.9532H12.9657H12.9782H12.9906H13.0031H13.0155H13.028H13.0404H13.0528H13.0653H13.0777H13.0901H13.1025H13.1148H13.1272H13.1396H13.1519H13.1643H13.1766H13.1889H13.2013H13.2136H13.2259H13.2382H13.2505H13.2627H13.275H13.2873H13.2995H13.3118H13.324H13.3362H13.3485H13.3607H13.3729H13.3851H13.3973H13.4095H13.4216H13.4338H13.446H13.4581H13.4703H13.4824H13.4945H13.5066H13.5188H13.5309H13.543H13.5551H13.5671H13.5792H13.5913H13.6034H13.6154H13.6275H13.6395H13.6515H13.6636H13.6756H13.6876H13.6996H13.7116H13.7236H13.7356H13.7476H13.7596H13.7715H13.7835H13.7955H13.8074H13.8194H13.8313H13.8432H13.8551H13.8671H13.879H13.8909H13.9028H13.9147H13.9266H13.9385H13.9503H13.9622H13.9741H13.9859H13.9978H14.0096H14.0215H14.0333H14.0452H14.057H14.0688H14.0806H14.0924H14.1042H14.116H14.1278H14.1396H14.1514H14.1632H14.175H14.1867H14.1985H14.2103H14.222H14.2338H14.2455H14.2573H14.269H14.2807H14.2925H14.3042H14.3159H14.3276H14.3393H14.351H14.3628H14.3744H14.3861H14.3978H14.4095H14.4212H14.4329H14.4445H14.4562H14.4679H14.4795H14.4912H14.5029H14.5145H14.5262H14.5378H14.5494H14.5611H14.5727H14.5843H14.596H14.6076H14.6192H14.6308H14.6424H14.654H14.6656H14.6773H14.6889H14.7004H14.712H14.7236H14.7352H14.7468H14.7584H14.77H14.7815H14.7931H14.8047H14.8163H14.8278H14.8394H14.851H14.8625H14.8741H14.8856H14.8972H14.9087H14.9203H14.9318H14.9434H14.9549H14.9664H14.978H14.9895H15.0011H15.0126H15.0241H15.0356H15.0472H15.0587H15.0702H15.0817H15.0933H15.1048H15.1163H15.1278H15.1393H15.1508H15.1624H15.1739H15.1854H15.1969H15.2084H15.2199H15.2314H15.2429H15.2544H15.2659H15.2774H15.2889H15.3004H15.3119H15.3234H15.3349H15.3464H15.3579H15.3694H15.3809H15.3924H15.4039H15.4154H15.4269H15.4384H15.4499H15.4614H15.4729H15.4844H15.4959H15.5074H15.5188H15.5303H15.5418H15.5533H15.5648H15.5763H15.5878H15.5993H15.6108H15.6223H15.6338H15.6453H15.6568H15.6683H15.6798H15.6913H15.7028H15.7143H15.7258H15.7373H15.7488H15.7603H15.7718H15.7833H15.7949H15.8064H15.8179H15.8294H15.8409H15.8524H15.8639H15.8755H15.887H15.8985H15.91H15.9215H15.9331H15.9446H15.9561H15.9677H15.9792H15.9907H16.0023H16.0138H16.0253H16.0369H16.0484H16.06H16.0715H16.0831H16.0946H16.1062H16.1178H16.1293H16.1409H16.1524H16.164H16.1756H16.1872H16.1987H16.2103H16.2219H16.2335H16.2451H16.2567H16.2683H16.2799H16.2915H16.3031H16.3147H16.3263H16.3379H16.3495H16.3611H16.3727H16.3844H16.396H16.4076H16.4193H16.4309H16.4425H16.4542H16.4658H16.4775H16.4891H16.5008H16.5125H16.5241H16.5358H16.5475H16.5592H16.5709H16.5825H16.5942H16.6059H16.6176H16.6293H16.6411H16.6528H16.6645H16.6762H16.6879H16.6997H16.7114H16.7231H16.7349H16.7466H16.7584H16.7702H16.7819H16.7937H16.8055H16.8172H16.829H16.8408H16.8526H16.8644H16.8762H16.888H16.8999H16.9117H16.9235H16.9353H16.9472H16.959H16.9709H16.9827H16.9946H17.0064H17.0183H17.0302H17.0421H17.054H17.0659H17.0778H17.0897H17.1016H17.1135H17.1254H17.1373H17.1493H17.1612H17.1732H17.1851H17.1971H17.2091H17.221H17.233H17.245H17.257H17.269H17.281H17.293H17.305H17.3171H17.3291H17.3412H17.3532H17.3653H17.3773H17.3894H17.4015H17.4135H17.4256H17.4377H17.4498H17.462H17.4741H17.4862H17.4983H17.5105H17.5226H17.5348H17.547H17.5591H17.5713H17.5835H17.5957H17.6079H17.6201H17.6323H17.6446H17.6568H17.669H17.6813H17.6936H17.7058H17.7181H17.7304H17.7427H17.755H17.7673H17.7796H17.7919H17.8043H17.8166H17.829H17.8413H17.8537H17.8661H17.8785H17.8909H17.9033H17.9157H17.9281H17.9406H17.953H17.9654H17.9779H17.9904H18.0029H18.0153H18.0278H18.0403H18.0529H18.0654H18.0779H18.0905H18.103H18.1156H18.1282H18.1407H18.1533H18.1659H18.1786H18.1912H18.2038H18.2165H18.2291H18.2418H18.2544H18.2671H18.2798H18.2925H18.3052H18.318H18.3307H19.8307V33.8668V30.8005V29.3005H18.3307H12.1982Z" fill="#84BB2F" stroke="#84BB2F" stroke-width="3"/>
<path d="M21.4004 29.3003H19.9004V30.8003V33.8665V35.3665H21.4004H21.4131H21.4258H21.4386H21.4513H21.464H21.4766H21.4893H21.502H21.5146H21.5273H21.5399H21.5525H21.5651H21.5777H21.5903H21.6029H21.6155H21.6281H21.6406H21.6532H21.6657H21.6782H21.6907H21.7032H21.7157H21.7282H21.7407H21.7532H21.7656H21.7781H21.7905H21.803H21.8154H21.8278H21.8402H21.8526H21.865H21.8774H21.8897H21.9021H21.9145H21.9268H21.9391H21.9515H21.9638H21.9761H21.9884H22.0007H22.013H22.0253H22.0375H22.0498H22.062H22.0743H22.0865H22.0987H22.111H22.1232H22.1354H22.1476H22.1598H22.172H22.1841H22.1963H22.2085H22.2206H22.2327H22.2449H22.257H22.2691H22.2812H22.2933H22.3054H22.3175H22.3296H22.3417H22.3538H22.3658H22.3779H22.3899H22.402H22.414H22.426H22.4381H22.4501H22.4621H22.4741H22.4861H22.4981H22.51H22.522H22.534H22.546H22.5579H22.5699H22.5818H22.5937H22.6057H22.6176H22.6295H22.6414H22.6533H22.6652H22.6771H22.689H22.7009H22.7128H22.7246H22.7365H22.7484H22.7602H22.7721H22.7839H22.7958H22.8076H22.8194H22.8312H22.8431H22.8549H22.8667H22.8785H22.8903H22.9021H22.9138H22.9256H22.9374H22.9492H22.9609H22.9727H22.9844H22.9962H23.0079H23.0197H23.0314H23.0432H23.0549H23.0666H23.0783H23.09H23.1017H23.1135H23.1252H23.1368H23.1485H23.1602H23.1719H23.1836H23.1953H23.2069H23.2186H23.2303H23.2419H23.2536H23.2653H23.2769H23.2885H23.3002H23.3118H23.3235H23.3351H23.3467H23.3583H23.37H23.3816H23.3932H23.4048H23.4164H23.428H23.4396H23.4512H23.4628H23.4744H23.486H23.4976H23.5092H23.5208H23.5323H23.5439H23.5555H23.5671H23.5786H23.5902H23.6018H23.6133H23.6249H23.6364H23.648H23.6596H23.6711H23.6826H23.6942H23.7057H23.7173H23.7288H23.7404H23.7519H23.7634H23.775H23.7865H23.798H23.8095H23.8211H23.8326H23.8441H23.8556H23.8672H23.8787H23.8902H23.9017H23.9132H23.9247H23.9362H23.9477H23.9593H23.9708H23.9823H23.9938H24.0053H24.0168H24.0283H24.0398H24.0513H24.0628H24.0743H24.0858H24.0973H24.1088H24.1203H24.1318H24.1433H24.1548H24.1663H24.1778H24.1893H24.2007H24.2122H24.2237H24.2352H24.2467H24.2582H24.2697H24.2812H24.2927H24.3042H24.3157H24.3272H24.3387H24.3502H24.3617H24.3732H24.3847H24.3962H24.4077H24.4192H24.4307H24.4422H24.4537H24.4652H24.4767H24.4882H24.4997H24.5112H24.5227H24.5342H24.5457H24.5572H24.5687H24.5802H24.5918H24.6033H24.6148H24.6263H24.6378H24.6493H24.6609H24.6724H24.6839H24.6954H24.707H24.7185H24.73H24.7416H24.7531H24.7646H24.7762H24.7877H24.7993H24.8108H24.8224H24.8339H24.8455H24.857H24.8686H24.8801H24.8917H24.9033H24.9148H24.9264H24.938H24.9495H24.9611H24.9727H24.9843H24.9959H25.0075H25.019H25.0306H25.0422H25.0538H25.0654H25.077H25.0887H25.1003H25.1119H25.1235H25.1351H25.1467H25.1584H25.17H25.1816H25.1933H25.2049H25.2166H25.2282H25.2399H25.2515H25.2632H25.2749H25.2865H25.2982H25.3099H25.3216H25.3333H25.3449H25.3566H25.3683H25.38H25.3917H25.4035H25.4152H25.4269H25.4386H25.4503H25.4621H25.4738H25.4856H25.4973H25.5091H25.5208H25.5326H25.5443H25.5561H25.5679H25.5797H25.5915H25.6032H25.615H25.6268H25.6386H25.6505H25.6623H25.6741H25.6859H25.6978H25.7096H25.7214H25.7333H25.7451H25.757H25.7689H25.7807H25.7926H25.8045H25.8164H25.8283H25.8402H25.8521H25.864H25.8759H25.8879H25.8998H25.9117H25.9237H25.9356H25.9476H25.9595H25.9715H25.9835H25.9955H26.0075H26.0195H26.0315H26.0435H26.0555H26.0675H26.0795H26.0916H26.1036H26.1157H26.1277H26.1398H26.1519H26.1639H26.176H26.1881H26.2002H26.2123H26.2244H26.2366H26.2487H26.2608H26.273H26.2851H26.2973H26.3095H26.3216H26.3338H26.346H26.3582H26.3704H26.3826H26.3948H26.4071H26.4193H26.4316H26.4438H26.4561H26.4683H26.4806H26.4929H26.5052H26.5175H26.5298H26.5421H26.5545H26.5668H26.5792H26.5915H26.6039H26.6162H26.6286H26.641H26.6534H26.6658H26.6782H26.6907H26.7031H26.7155H26.728H26.7405H26.7529H26.7654H26.7779H26.7904H26.8029H26.8154H26.828H26.8405H26.853H26.8656H26.8782H26.8907H26.9033H26.9159H26.9285H26.9411H26.9538H26.9664H26.979H26.9917H27.0044H27.017H27.0297H27.0424H27.0551H27.0678H27.0806H27.0933H27.1061H27.1188H27.1316H27.1444H27.1571H27.1699H27.1828H27.1956H27.2084H27.2213H27.2341H27.247H27.2598H27.2727H27.2856H27.2985H27.3115H27.3244H27.3373H27.3503H27.3633H27.3762H27.3892H27.4022H27.4152H27.4282H27.4413H27.4543H27.4674H27.4805H27.4935H27.5066H27.5197H27.5328H29.0328V33.8665V30.8003V29.3003H27.5328H21.4004Z" fill="#84BB2F" stroke="#84BB2F" stroke-width="3"/>
<path d="M3 16.8312H1.5V18.3312V50.731C1.5 54.0956 4.23474 56.8303 7.59934 56.8303H50.7309C54.0955 56.8303 56.8303 54.0956 56.8303 50.731V18.3312V16.8312H55.3303H3ZM27.5298 35.433H26.0298V36.933V44.5985C26.0298 44.6175 26.0157 44.6316 25.9967 44.6316H13.7318C13.7128 44.6316 13.6987 44.6175 13.6987 44.5985V36.933V35.433H12.1987H10.6656C10.6466 35.433 10.6325 35.4188 10.6325 35.3998V29.2674C10.6325 29.2484 10.6466 29.2343 10.6656 29.2343H12.477H14.5991L13.891 27.2338C13.7645 26.8764 13.6987 26.5336 13.6987 26.2012C13.6987 25.3681 14.0199 24.5948 14.6065 24.0103L14.6101 24.0066C15.6966 22.9163 17.6723 22.8752 18.8602 23.9438L19.8646 24.8473L20.8679 23.9427C22.0493 22.8775 24.0279 22.9125 25.1212 24.0097L25.1251 24.0135C25.7081 24.5944 26.0298 25.3672 26.0298 26.2012C26.0298 26.5326 25.9639 26.8754 25.837 27.2342L25.1298 29.2343H27.2512H29.0629C29.0819 29.2343 29.096 29.2484 29.096 29.2674V35.3998C29.096 35.4188 29.0819 35.433 29.0629 35.433H27.5298ZM47.6647 44.6316H35.1954C35.1764 44.6316 35.1623 44.6175 35.1623 44.5985C35.1623 44.5795 35.1764 44.5654 35.1954 44.5654H47.6647C47.6837 44.5654 47.6978 44.5795 47.6978 44.5985C47.6978 44.6175 47.6837 44.6316 47.6647 44.6316ZM47.6647 38.4992H35.1954C35.1764 38.4992 35.1623 38.485 35.1623 38.4661C35.1623 38.4471 35.1764 38.433 35.1954 38.433H47.6647C47.6837 38.433 47.6978 38.4471 47.6978 38.4661C47.6978 38.485 47.6837 38.4992 47.6647 38.4992ZM47.6647 32.3667H35.1954C35.1764 32.3667 35.1623 32.3526 35.1623 32.3336C35.1623 32.3146 35.1764 32.3005 35.1954 32.3005H47.6647C47.6837 32.3005 47.6978 32.3146 47.6978 32.3336C47.6978 32.3526 47.6837 32.3667 47.6647 32.3667Z" fill="#84BB2F" stroke="#84BB2F" stroke-width="3"/>
<path d="M10.6645 12.1988C11.5112 12.1988 12.1976 11.5124 12.1976 10.6657C12.1976 9.81897 11.5112 9.13257 10.6645 9.13257C9.81775 9.13257 9.13135 9.81897 9.13135 10.6657C9.13135 11.5124 9.81775 12.1988 10.6645 12.1988Z" fill="black"/>
<path d="M16.7978 12.1988C17.6445 12.1988 18.3309 11.5124 18.3309 10.6657C18.3309 9.81897 17.6445 9.13257 16.7978 9.13257C15.951 9.13257 15.2646 9.81897 15.2646 10.6657C15.2646 11.5124 15.951 12.1988 16.7978 12.1988Z" fill="black"/>
<path d="M22.9311 12.1988C23.7778 12.1988 24.4642 11.5124 24.4642 10.6657C24.4642 9.81897 23.7778 9.13257 22.9311 9.13257C22.0843 9.13257 21.3979 9.81897 21.3979 10.6657C21.3979 11.5124 22.0843 12.1988 22.9311 12.1988Z" fill="black"/>
<path d="M50.7309 3H7.59934C5.06326 3 3 5.06326 3 7.59934C3 8.73466 3 49.6136 3 50.7309C3 53.267 5.06326 55.3303 7.59934 55.3303H50.7309C53.267 55.3303 55.3303 53.267 55.3303 50.7309C55.3303 49.6134 55.3303 8.73476 55.3303 7.59934C55.3303 5.06326 53.267 3 50.7309 3ZM52.264 50.7309C52.264 51.5763 51.5763 52.264 50.7309 52.264H7.59934C6.75398 52.264 6.06623 51.5763 6.06623 50.7309V18.3311H52.264V50.7309ZM52.264 15.2649H6.06623V7.59934C6.06623 6.75398 6.75398 6.06623 7.59934 6.06623H50.7309C51.5763 6.06623 52.264 6.75398 52.264 7.59934V15.2649Z" fill="black"/>
<path d="M29.0618 27.6321H27.2678C27.4391 27.1462 27.5287 26.6294 27.5287 26.099C27.5287 23.5569 25.4716 21.4996 22.9294 21.4996C21.7865 21.4996 20.7076 21.9142 19.8631 22.6713C19.0188 21.9142 17.9398 21.4996 16.7969 21.4996C14.2548 21.4996 12.1976 23.5568 12.1976 26.099C12.1976 26.6294 12.2872 27.1461 12.4585 27.6321H10.6645C9.81777 27.6321 9.13135 28.3185 9.13135 29.1652V35.2977C9.13135 36.1443 9.81777 36.8308 10.6645 36.8308H12.1976V44.4963C12.1976 45.343 12.884 46.0294 13.7307 46.0294H25.9956C26.8423 46.0294 27.5287 45.343 27.5287 44.4963V36.8308H29.0618C29.9085 36.8308 30.5949 36.1443 30.5949 35.2977V29.1652C30.5949 28.3185 29.9085 27.6321 29.0618 27.6321ZM18.33 42.9632H15.2638V36.8308H18.33V42.9632ZM18.33 33.7645C17.6255 33.7645 12.8586 33.7645 12.1976 33.7645V30.6983H18.33V33.7645ZM18.33 27.6321H16.7969C15.9495 27.6321 15.2638 26.9465 15.2638 26.099C15.2638 25.2516 15.9494 24.5659 16.7969 24.5659C17.6443 24.5659 18.33 25.2515 18.33 26.099V27.6321ZM21.3963 26.099C21.3963 25.2516 22.0819 24.5659 22.9294 24.5659C23.7768 24.5659 24.4625 25.2515 24.4625 26.099C24.4625 26.9464 23.7769 27.6321 22.9294 27.6321H21.3963V26.099ZM24.4625 42.9632H21.3963V36.8308H24.4625V42.9632ZM27.5287 33.7645C26.8573 33.7645 22.1765 33.7645 21.3963 33.7645V30.6983H27.5287V33.7645Z" fill="black"/>
<path d="M47.665 42.9633H35.1957C34.349 42.9633 33.6626 43.6497 33.6626 44.4964C33.6626 45.3431 34.349 46.0295 35.1957 46.0295H47.665C48.5117 46.0295 49.1981 45.3431 49.1981 44.4964C49.1981 43.6497 48.5117 42.9633 47.665 42.9633Z" fill="black"/>
<path d="M47.665 30.6984H35.1957C34.349 30.6984 33.6626 31.3848 33.6626 32.2315C33.6626 33.0782 34.349 33.7646 35.1957 33.7646H47.665C48.5117 33.7646 49.1981 33.0782 49.1981 32.2315C49.1981 31.3848 48.5117 30.6984 47.665 30.6984Z" fill="black"/>
<path d="M47.665 36.8307H35.1957C34.349 36.8307 33.6626 37.5171 33.6626 38.3638C33.6626 39.2105 34.349 39.8969 35.1957 39.8969H47.665C48.5117 39.8969 49.1981 39.2105 49.1981 38.3638C49.1981 37.5171 48.5117 36.8307 47.665 36.8307Z" fill="black"/>
</svg>
