<svg width="56" height="58" viewBox="0 0 56 58" fill="none" xmlns="http://www.w3.org/2000/svg">
<path d="M46.9422 28.1106L46.9422 28.1105C44.6542 24.271 40.747 22.051 36.2772 22.051H35.8702C34.2487 22.051 32.9341 23.3656 32.9341 24.9871V46.7211C32.9341 48.3426 34.2487 49.6572 35.8702 49.6572H51.4766C53.0981 49.6572 54.4127 48.3426 54.4127 46.7211V38.104C54.4127 35.1191 52.2246 32.6378 49.3669 32.1799L46.9422 28.1106Z" fill="#84BB2F" stroke="#84BB2F" stroke-width="3"/>
<path d="M35.8717 17.4363H5.32918C3.70769 17.4363 2.39307 18.7509 2.39307 20.3724V46.721C2.39307 48.3425 3.70769 49.6572 5.32918 49.6572H35.8717C37.4933 49.6572 38.8082 48.3428 38.8082 46.721V20.3724C38.8082 18.7506 37.4933 17.4363 35.8717 17.4363Z" fill="#84BB2F" stroke="#84BB2F" stroke-width="3"/>
<path d="M20.5981 17.4363H19.0981V18.9363V48.1572V49.6572H20.5981H35.8694C37.491 49.6572 38.8059 48.3428 38.8059 46.721V20.3724C38.8059 18.7507 37.491 17.4363 35.8694 17.4363H20.5981Z" fill="#84BB2F" stroke="#84BB2F" stroke-width="3"/>
<path d="M11.5022 27.2399L11.5023 27.24C12.1769 28.2304 13.4107 29.9133 14.9223 31.365C16.363 32.7486 18.3777 34.2401 20.6019 34.2401C22.8261 34.2401 24.8409 32.7486 26.2817 31.365C27.7933 29.9134 29.0273 28.2305 29.7019 27.24L29.7021 27.2398C32.4041 23.2713 34.1467 18.8919 34.1467 15.4761C34.1467 8.00613 28.0718 1.93127 20.6019 1.93127C13.132 1.93127 7.05713 8.00613 7.05713 15.4761C7.05713 18.8919 8.79973 23.2716 11.5022 27.2399Z" fill="#84BB2F" stroke="#84BB2F" stroke-width="3"/>
<path d="M20.5981 1.93127H19.0981V3.43127V32.7401V34.2401H20.5981C22.8223 34.2401 24.8372 32.7486 26.2779 31.365C27.7895 29.9133 29.0233 28.2305 29.6978 27.2399C32.4003 23.2716 34.1429 18.8919 34.1429 15.4761C34.1429 8.00613 28.0681 1.93127 20.5981 1.93127Z" fill="#84BB2F" stroke="#84BB2F" stroke-width="3"/>
<path d="M14.3467 15.4759C14.3467 18.9259 17.1509 21.7302 20.6009 21.7302C24.0508 21.7302 26.8555 18.9261 26.8555 15.4759C26.8555 12.0259 24.0509 9.22131 20.6009 9.22131C17.1508 9.22131 14.3467 12.0261 14.3467 15.4759Z" fill="#84BB2F" stroke="#84BB2F" stroke-width="3"/>
<path d="M48.4688 35.047H51.1087L49.7574 32.7792L46.9424 28.0549L46.9423 28.0547C45.3358 25.3592 42.9207 23.4474 40.0485 22.5574L38.1045 21.9551V23.9902V30.6744C38.1045 33.0892 40.062 35.047 42.4767 35.047H48.4688Z" fill="#84BB2F" stroke="#84BB2F" stroke-width="3"/>
<path d="M20.5981 9.22168H19.0981V10.7217V20.2305V21.7305H20.5981C24.0482 21.7305 26.8528 18.9259 26.8528 15.4759C26.8528 12.0258 24.048 9.22168 20.5981 9.22168Z" fill="#84BB2F" stroke="#84BB2F" stroke-width="3"/>
<path d="M13.9936 52.5271C17.0632 52.5271 19.5629 50.0274 19.5629 46.9578C19.5629 43.8881 17.063 41.3889 13.9936 41.3889C10.9242 41.3889 8.42432 43.8881 8.42432 46.9578C8.42432 50.0274 10.924 52.5271 13.9936 52.5271Z" fill="#84BB2F" stroke="#84BB2F" stroke-width="3"/>
<path d="M6.50049 48.5054C6.50049 52.3695 9.64177 55.5108 13.5059 55.5108C17.37 55.5108 20.5113 52.3695 20.5113 48.5054C20.5113 44.6417 17.3701 41.5 13.5059 41.5C9.64177 41.5 6.50049 44.6413 6.50049 48.5054ZM12.3731 48.5054C12.3731 47.882 12.8825 47.3726 13.5059 47.3726C14.1293 47.3726 14.6387 47.882 14.6387 48.5054C14.6387 49.1291 14.129 49.6386 13.5059 49.6386C12.8828 49.6386 12.3731 49.1291 12.3731 48.5054Z" fill="#84BB2F" stroke="#84BB2F" stroke-width="3"/>
<path d="M43.7691 52.5271C46.8391 52.5271 49.3384 50.0273 49.3384 46.9578C49.3384 43.8882 46.839 41.3889 43.7691 41.3889C40.6995 41.3889 38.2002 43.8883 38.2002 46.9578C38.2002 50.0272 40.6994 52.5271 43.7691 52.5271Z" fill="#84BB2F" stroke="#84BB2F" stroke-width="3"/>
<path d="M38.5005 48.5054C38.5005 52.3695 41.6417 55.5108 45.5055 55.5108C49.3696 55.5108 52.5109 52.3695 52.5109 48.5054C52.5109 44.6417 49.3697 41.5 45.5055 41.5C41.6417 41.5 38.5005 44.6413 38.5005 48.5054ZM44.3727 48.5054C44.3727 47.882 44.8821 47.3726 45.5055 47.3726C46.1292 47.3726 46.6387 47.8823 46.6387 48.5054C46.6387 49.1289 46.1291 49.6386 45.5055 49.6386C44.8824 49.6386 44.3727 49.1291 44.3727 48.5054Z" fill="#84BB2F" stroke="#84BB2F" stroke-width="3"/>
<path fill-rule="evenodd" clip-rule="evenodd" d="M20.8352 30.2209C23.7649 30.2209 30.6268 20.3566 30.6268 14.8578C30.6268 9.44997 26.2434 5.06623 20.8352 5.06623C15.4274 5.06623 11.0437 9.44997 11.0437 14.8578C11.0437 19.6308 17.3622 30.2209 20.8352 30.2209ZM20.8352 9.78255C23.6379 9.78255 25.9109 12.0551 25.9109 14.8578C25.9109 17.6605 23.6383 19.9334 20.8352 19.9334C18.0325 19.9334 15.76 17.6605 15.76 14.8578C15.76 12.0551 18.0325 9.78255 20.8352 9.78255ZM22.2561 13.4369C23.0407 14.2214 23.0407 15.4942 22.2561 16.2787C20.9945 17.5403 18.8262 16.6432 18.8262 14.8578C18.8262 13.0724 20.9945 12.1752 22.2561 13.4369ZM9.66904 21.5332C11.7471 26.2296 16.7785 33.2871 20.8352 33.2871C24.892 33.2871 29.9233 26.2296 32.0014 21.5332H35.6042V46.594H19.3556C17.5797 41.3024 10.0044 41.2489 8.21019 46.594H6.06623V21.5332H9.66904ZM33.1253 18.467C39.2406 18.467 38.6704 17.8138 38.6704 23.4213C42.4254 23.7538 45.6261 25.7892 47.5757 29.0606L50.5816 34.1051C53.2055 34.1347 55.3303 36.2807 55.3303 38.9085V48.1072C55.3303 50.0679 52.8996 49.6403 51.1242 49.6403C49.8602 55.8674 40.8699 55.8674 39.6059 49.6403L19.5381 49.6603C18.2565 55.8614 9.30932 55.8614 8.02773 49.6603H4.53311C3.68631 49.6603 3 48.974 3 48.1271V20.0001C3 19.1533 3.68631 18.467 4.53311 18.467H8.54556C6.06583 9.7518 12.5951 2 20.8352 2C29.0753 2 35.605 9.7518 33.1253 18.467ZM50.9313 46.5741H52.264V38.9085C52.264 37.9535 51.4815 37.171 50.5265 37.171H42.8609C40.8423 37.171 40.8423 34.1048 42.8609 34.1048H47.0235C44.8672 30.4864 43.4446 27.0628 38.6704 26.5027V46.5741H39.7991C41.6053 41.2561 49.1419 41.3076 50.9313 46.5741ZM47.3525 46.4775C45.587 44.7116 42.5543 45.9676 42.5543 48.4649C42.5543 50.9622 45.587 52.2182 47.3525 50.4524C48.45 49.3548 48.45 47.5746 47.3525 46.4775ZM10.9806 48.2449C10.872 51.0612 14.042 52.1811 15.7704 50.4524C17.5362 48.6869 16.2802 45.6542 13.7829 45.6542C12.3097 45.6542 11.0932 46.7901 10.9806 48.2449Z" fill="black"/>
</svg>
