<svg width="40" height="40" viewBox="0 0 40 40" fill="none" xmlns="http://www.w3.org/2000/svg">
<path d="M14.6309 1H13.6309V2V12.5373V13.5373H14.6309H37.7292H38.7292V12.5373V3.04675C38.7292 1.91615 37.8127 1 36.6825 1H14.6309Z" fill="#82BB31" stroke="#82BB31" stroke-width="2"/>
<path d="M26.0984 14.6309V13.6309H25.0984H14.6309H13.6309V14.6309V25.0984V26.0984H14.6309H25.0984H26.0984V25.0984V14.6309Z" fill="#82BB31" stroke="#82BB31" stroke-width="2"/>
<path d="M2 27.1919V26.1919H1V27.1919V36.6825C1 37.8128 1.91638 38.7292 3.04675 38.7292H25.0983H26.0983V37.7292V27.1919V26.1919H25.0983H25.0964H25.094H25.0911H25.0876H25.0836H25.0792H25.0742H25.0687H25.0628H25.0563H25.0493H25.0419H25.0339H25.0255H25.0166H25.0072H24.9973H24.9869H24.976H24.9647H24.9529H24.9406H24.9279H24.9147H24.901H24.8868H24.8722H24.8571H24.8416H24.8256H24.8092H24.7923H24.7749H24.7571H24.7389H24.7202H24.7011H24.6815H24.6615H24.641H24.6201H24.5988H24.5771H24.5549H24.5323H24.5093H24.4858H24.462H24.4377H24.413H24.3879H24.3623H24.3364H24.31H24.2833H24.2561H24.2286H24.2006H24.1722H24.1435H24.1143H24.0848H24.0549H24.0245H23.9938H23.9627H23.9313H23.8994H23.8672H23.8346H23.8016H23.7682H23.7345H23.7004H23.666H23.6312H23.596H23.5604H23.5245H23.4883H23.4517H23.4147H23.3774H23.3398H23.3018H23.2634H23.2247H23.1857H23.1464H23.1067H23.0666H23.0263H22.9856H22.9446H22.9032H22.8616H22.8196H22.7773H22.7346H22.6917H22.6484H22.6049H22.561H22.5168H22.4724H22.4276H22.3825H22.3371H22.2914H22.2454H22.1992H22.1526H22.1058H22.0586H22.0112H21.9635H21.9155H21.8673H21.8187H21.7699H21.7208H21.6715H21.6218H21.5719H21.5218H21.4714H21.4207H21.3698H21.3186H21.2671H21.2154H21.1635H21.1113H21.0588H21.0061H20.9532H20.9001H20.8466H20.793H20.7391H20.685H20.6307H20.5761H20.5213H20.4663H20.4111H20.3556H20.2999H20.244H20.1879H20.1316H20.0751H20.0184H19.9614H19.9043H19.8469H19.7894H19.7316H19.6737H19.6156H19.5573H19.4987H19.4401H19.3812H19.3221H19.2629H19.2034H19.1438H19.084H19.0241H18.964H18.9037H18.8432H18.7826H18.7218H18.6609H18.5997H18.5385H18.4771H18.4155H18.3538H18.2919H18.2299H18.1677H18.1054H18.043H17.9804H17.9177H17.8548H17.7918H17.7287H17.6654H17.6021H17.5386H17.4749H17.4112H17.3473H17.2834H17.2193H17.1551H17.0908H17.0263H16.9618H16.8972H16.8324H16.7676H16.7027H16.6376H16.5725H16.5073H16.442H16.3766H16.3111H16.2456H16.1799H16.1142H16.0484H15.9825H15.9166H15.8505H15.7844H15.7183H15.6521H15.5858H15.5194H15.453H15.3865H15.32H15.2534H15.1868H15.1201H15.0534H14.9866H14.9198H14.8529H14.786H14.7191H14.6521H14.5851H14.5181H14.451H14.384H14.3168H14.2497H14.1825H14.1154H14.0482H13.981H13.9137H13.8465H13.7793H13.712H13.6448H13.5775H13.5102H13.443H13.3757H13.3085H13.2412H13.174H13.1068H13.0396H12.9724H12.9052H12.8381H12.7709H12.7038H12.6367H12.5697H12.5026H12.4356H12.3687H12.3018H12.2349H12.168H12.1012H12.0344H11.9677H11.9011H11.8344H11.7679H11.7014H11.6349H11.5685H11.5022H11.4359H11.3697H11.3035H11.2374H11.1714H11.1055H11.0396H10.9738H10.9081H10.8425H10.7769H10.7115H10.6461H10.5808H10.5156H10.4505H10.3855H10.3206H10.2558H10.1911H10.1265H10.0619H9.99755H9.93326H9.86908H9.80501H9.74105H9.67722H9.6135H9.5499H9.48642H9.42307H9.35985H9.29676H9.23379H9.17096H9.10827H9.04571H8.98329H8.92101H8.85888H8.79689H8.73505H8.67335H8.61181H8.55042H8.48919H8.42811H8.36719H8.30644H8.24585H8.18542H8.12516H8.06507H8.00515H7.94541H7.88584H7.82645H7.76723H7.7082H7.64936H7.59069H7.53222H7.47394H7.41585H7.35795H7.30024H7.24274H7.18544H7.12833H7.07143H7.01474H6.95826H6.90198H6.84592H6.79007H6.73444H6.67902H6.62383H6.56886H6.51411H6.45959H6.40529H6.35123H6.2974H6.2438H6.19044H6.13732H6.08444H6.0318H5.97941H5.92726H5.87536H5.82371H5.77231H5.72117H5.67029H5.61966H5.56929H5.51919H5.46935H5.41978H5.37048H5.32145H5.27269H5.2242H5.176H5.12807H5.08042H5.03306H4.98598H4.93919H4.89268H4.84647H4.80055H4.75493H4.7096H4.66457H4.61985H4.57542H4.53131H4.4875H4.444H4.40081H4.35793H4.31537H4.27313H4.2312H4.1896H4.14832H4.10737H4.06674H4.02645H3.98648H3.94685H3.90756H3.8686H3.82998H3.79171H3.75377H3.71619H3.67895H3.64206H3.60552H3.56934H3.53352H3.49805H3.46294H3.42819H3.39381H3.35979H3.32615H3.29287H3.25996H3.22743H3.19527H3.1635H3.1321H3.10109H3.07046H3.04021H3.01036H2.98089H2.95182H2.92314H2.89486H2.86698H2.8395H2.81242H2.78574H2.75947H2.73361H2.70816H2.68313H2.65851H2.6343H2.61051H2.58715H2.56421H2.54169H2.5196H2.49794H2.47671H2.45591H2.43555H2.41562H2.39613H2.37709H2.35849H2.34033H2.32262H2.30536H2.28855H2.27219H2.25629H2.24085H2.22587H2.21134H2.19728H2.18369H2.17056H2.15791H2.14572H2.13401H2.12277H2.11202H2.10174H2.09194H2.08263H2.0738H2.06546H2.05761H2.05025H2.04338H2.03701H2.03114H2.02577H2.0209H2.01654H2.01268H2.00933H2.00649H2.00416H2.00234H2.00104H2.00026C2.00009 26.1919 2 26.1919 2 27.1919Z" fill="#82BB31" stroke="#82BB31" stroke-width="2"/>
<path d="M1 25.0983V26.0983H2H12.5373H13.5373V25.0983V2V1H12.5373H3.04675C1.91647 1 1 1.91615 1 3.04675V25.0983Z" fill="#82BB31" stroke="#82BB31" stroke-width="2"/>
<path d="M27.1914 13.6309H26.1914V14.6309V37.7292V38.7292H27.1914H36.682C37.8123 38.7292 38.7287 37.8128 38.7287 36.6825V14.6309V13.6309H37.7287H27.1914Z" fill="#82BB31" stroke="#82BB31" stroke-width="2"/>
<path d="M36.6824 2C35.6799 2 4.04591 2 3.04675 2C2.46867 2 2 2.46867 2 3.04675C2 4.04926 2 35.6832 2 36.6824C2 37.2605 2.46867 37.7292 3.04675 37.7292C4.04926 37.7292 35.6832 37.7292 36.6824 37.7292C37.2605 37.7292 37.7292 37.2605 37.7292 36.6824V13.5841V3.04675C37.7292 2.46867 37.2605 2 36.6824 2ZM4.09351 4.09351H12.5373C12.5373 4.75031 12.5373 24.4315 12.5373 25.0983H4.09351V4.09351ZM25.0983 35.6357H4.09351V27.1918C4.75031 27.1918 24.4315 27.1918 25.0983 27.1918V35.6357ZM25.0983 25.0983H14.6308V14.6308H25.0983V25.0983ZM35.6357 35.6357H27.1918C27.1918 34.9789 27.1918 15.2977 27.1918 14.6308H35.6357V35.6357ZM35.6357 12.5373C34.9789 12.5373 15.2977 12.5373 14.6308 12.5373V4.09351H35.6357V12.5373Z" fill="black"/>
</svg>
