<svg width="38" height="38" viewBox="0 0 38 38" fill="none" xmlns="http://www.w3.org/2000/svg">
<path d="M18.6747 1.24219H18.6736C8.91274 1.24219 1 9.15493 1 18.9158C1 28.6766 8.91274 36.5894 18.6736 36.5894C28.4344 36.5894 36.3472 28.6766 36.3472 18.9158V18.9147C36.3368 9.15881 28.4306 1.25262 18.6747 1.24219ZM17.4827 18.7248H18.4827V17.7248V9.38802C18.4827 9.28253 18.5682 9.19702 18.6737 9.19702C18.7791 9.19702 18.8646 9.28245 18.8646 9.38802V18.9158C18.8646 19.0213 18.7791 19.1068 18.6736 19.1068H9.14583C9.04034 19.1068 8.95484 19.0213 8.95484 18.9158C8.95484 18.8103 9.04034 18.7248 9.14583 18.7248H17.4827Z" fill="#82BB31" stroke="#82BB31" stroke-width="2"/>
<path d="M18.6736 2.24219C9.46502 2.24219 2 9.70721 2 18.9158C2 28.1243 9.46502 35.5894 18.6736 35.5894C27.8822 35.5894 35.3472 28.1243 35.3472 18.9158C35.3374 9.71133 27.8781 2.25203 18.6736 2.24219ZM18.6736 33.2074C10.7805 33.2074 4.38192 26.8088 4.38192 18.9158C4.38192 11.0227 10.7805 4.62411 18.6736 4.62411C26.5667 4.62411 32.9653 11.0227 32.9653 18.9158C32.9567 26.8054 26.5632 33.1989 18.6736 33.2074Z" fill="black"/>
<path d="M18.6728 8.19727C18.0151 8.19727 17.4819 8.73048 17.4819 9.38826V17.7251H9.1451C8.48732 17.7251 7.9541 18.2583 7.9541 18.9161C7.9541 19.5739 8.48732 20.107 9.1451 20.107H18.6728C19.3306 20.107 19.8638 19.5738 19.8638 18.916V9.38826C19.8638 8.73048 19.3306 8.19727 18.6728 8.19727Z" fill="black"/>
</svg>
