<svg width="40" height="40" viewBox="0 0 40 40" fill="none" xmlns="http://www.w3.org/2000/svg">
<path d="M15.4491 17.6853C16.5795 17.6853 17.4958 16.7689 17.4958 15.6385C17.4958 14.5082 16.5795 13.5918 15.4491 13.5918C14.3187 13.5918 13.4023 14.5082 13.4023 15.6385C13.4023 16.7689 14.3187 17.6853 15.4491 17.6853Z" fill="#82BB31" stroke="#82BB31" stroke-width="2"/>
<path d="M24.2806 26.6218C25.411 26.6218 26.3274 25.7055 26.3274 24.5751C26.3274 23.4447 25.411 22.5283 24.2806 22.5283C23.1502 22.5283 22.2339 23.4447 22.2339 24.5751C22.2339 25.7055 23.1502 26.6218 24.2806 26.6218Z" fill="#82BB31" stroke="#82BB31" stroke-width="2"/>
<path d="M34.9589 9.7208L34.7 10.6867L34.9589 9.7208L31.2454 8.72578L30.2503 5.01235L30.2503 5.01234C29.9579 3.921 28.8361 3.27224 27.7436 3.56512C27.7436 3.56514 27.7435 3.56515 27.7434 3.56517C27.7434 3.56518 27.7434 3.56519 27.7433 3.5652L24.0302 4.56008L21.3118 1.84174C21.3118 1.84171 21.3118 1.84169 21.3118 1.84167C20.5125 1.0423 19.2165 1.04242 18.4172 1.84167L15.6988 4.56008L11.9853 3.56507C11.9853 3.56507 11.9853 3.56506 11.9853 3.56506C10.8934 3.27245 9.77105 3.92035 9.47854 5.01228C9.47853 5.01233 9.47852 5.01237 9.47851 5.01242L8.48352 8.72571L4.77005 9.72073C4.77004 9.72073 4.77004 9.72073 4.77003 9.72073C3.67806 10.0133 3.03033 11.1356 3.3227 12.2273L3.32273 12.2275L4.31776 15.9411L1.59949 18.6595C1.59948 18.6595 1.59947 18.6595 1.59946 18.6595C0.800171 19.4588 0.800179 20.7547 1.59949 21.554L2.30659 20.8469L1.59949 21.554L4.31789 24.2724L3.32288 27.9859C3.32287 27.9859 3.32287 27.9859 3.32287 27.9859C3.03042 29.0773 3.67814 30.2001 4.77017 30.4927C4.77017 30.4927 4.77018 30.4927 4.77018 30.4927L8.48359 31.4877L9.47859 35.2011C9.4786 35.2011 9.4786 35.2012 9.47861 35.2012C9.77084 36.292 10.893 36.9413 11.9854 36.6485L15.6989 35.6535L18.4173 38.3719C18.4173 38.3719 18.4174 38.3719 18.4174 38.3719C19.2167 39.1713 20.5127 39.1712 21.3119 38.3719L24.0304 35.6535L27.7438 36.6485L27.7439 36.6485C28.8351 36.9408 29.9579 36.2933 30.2506 35.2012L31.2456 31.4877L34.9589 30.4927C36.0508 30.2001 36.6988 29.0778 36.4061 27.9858L35.4111 24.2725L38.1295 21.554C38.1296 21.554 38.1296 21.554 38.1296 21.554C38.929 20.7547 38.9289 19.4588 38.1296 18.6595L35.4111 15.941L36.4061 12.2275L35.4402 11.9687L36.4061 12.2275C36.6986 11.1357 36.0507 10.0134 34.9589 9.7208ZM15.5448 24.4926L15.5448 24.4926C15.5266 24.5108 15.497 24.5109 15.4787 24.4926C15.4604 24.4743 15.4604 24.4447 15.4787 24.4265L24.1842 15.721L24.1843 15.7209C24.2024 15.7028 24.232 15.7027 24.2503 15.721C24.2686 15.7392 24.2686 15.7688 24.2503 15.7871L15.5448 24.4926ZM13.309 15.6387C13.309 14.4595 14.27 13.4984 15.4493 13.4984C16.6285 13.4984 17.5895 14.4595 17.5895 15.6387C17.5895 16.818 16.6285 17.779 15.4493 17.779C14.27 17.779 13.309 16.818 13.309 15.6387ZM24.2798 26.715C23.1006 26.715 22.1396 25.754 22.1396 24.5748C22.1396 23.3955 23.1006 22.4345 24.2798 22.4345C25.4591 22.4345 26.4201 23.3955 26.4201 24.5748C26.4201 25.7541 25.4591 26.715 24.2798 26.715Z" fill="#82BB31" stroke="#82BB31" stroke-width="2"/>
<path d="M37.4225 19.3666L34.2958 16.2398L35.4402 11.9687C35.5898 11.4103 35.2584 10.8363 34.7 10.6867L30.4289 9.54228L29.2844 5.27118C29.1348 4.71284 28.561 4.38123 28.0024 4.53105L23.7314 5.67543L20.6047 2.54878C20.1959 2.13999 19.5331 2.13999 19.1244 2.54878L15.9976 5.67543L11.7265 4.53098C11.168 4.3813 10.594 4.7127 10.4445 5.27111L9.30002 9.54221L5.02885 10.6867C4.47044 10.8363 4.13911 11.4102 4.28866 11.9686L5.4331 16.2399L2.30659 19.3666C1.8978 19.7754 1.8978 20.4381 2.30659 20.8469L5.43324 23.9736L4.28879 28.2448C4.13925 28.8028 4.47058 29.3771 5.02899 29.5267L9.30009 30.6712L10.4445 34.9424C10.5939 35.5001 11.1681 35.8322 11.7265 35.6826L15.9978 34.5381L19.1245 37.6648C19.5332 38.0736 20.196 38.0736 20.6048 37.6648L23.7315 34.5381L28.0026 35.6826C28.5607 35.832 29.135 35.5008 29.2846 34.9424L30.4291 30.6712L34.7001 29.5267C35.2585 29.3771 35.5899 28.8032 35.4402 28.2448L34.2958 23.9736L37.4225 20.8469C37.8313 20.4381 37.8313 19.7754 37.4225 19.3666ZM32.3882 22.9207C32.1237 23.1851 32.0204 23.5706 32.1173 23.9318L33.1472 27.7755L29.3035 28.8055C28.9423 28.9023 28.6601 29.1844 28.5633 29.5456L27.5334 33.3894L23.6896 32.3595C23.3284 32.2625 22.9429 32.366 22.6785 32.6304L19.8645 35.4442L17.0507 32.6304C16.8518 32.4315 16.5844 32.3237 16.3105 32.3237C16.1116 32.3237 16.372 32.2704 12.1957 33.3894L11.1658 29.5456C11.069 29.1844 10.7868 28.9022 10.4256 28.8054L6.58188 27.7755L7.61182 23.9316C7.70861 23.5704 7.60533 23.1849 7.34092 22.9205L4.52704 20.1067L7.34085 17.2929C7.60533 17.0285 7.70861 16.643 7.61175 16.2818L6.58181 12.4379L10.4256 11.408C10.7868 11.3112 11.069 11.0291 11.1658 10.6679L12.1958 6.82407L16.0396 7.854C16.4008 7.95093 16.7863 7.84751 17.0507 7.5831L19.8645 4.76929L22.6784 7.5831C22.9428 7.84751 23.3283 7.95079 23.6895 7.854L27.5332 6.82414L28.5631 10.6679C28.6599 11.0291 28.9421 11.3113 29.3033 11.408L33.1471 12.4379L32.1171 16.2817C32.0203 16.6429 32.1236 17.0284 32.388 17.2928L35.2021 20.1067L32.3882 22.9207Z" fill="black"/>
<path d="M24.9569 15.0136C24.5482 14.6048 23.8854 14.6048 23.4766 15.0136L14.7711 23.7191C14.1098 24.3805 14.5872 25.506 15.5113 25.506C15.7792 25.506 16.0471 25.4038 16.2514 25.1994L24.9569 16.4939C25.3657 16.0852 25.3657 15.4224 24.9569 15.0136Z" fill="black"/>
<path d="M24.2804 21.4346C22.5489 21.4346 21.1401 22.8433 21.1401 24.5748C21.1401 26.3064 22.5489 27.7151 24.2804 27.7151C26.0119 27.7151 27.4207 26.3064 27.4207 24.5748C27.4207 22.8434 26.0119 21.4346 24.2804 21.4346ZM24.2804 25.6216C23.7032 25.6216 23.2336 25.152 23.2336 24.5748C23.2336 23.9976 23.7032 23.5281 24.2804 23.5281C24.8576 23.5281 25.3271 23.9976 25.3271 24.5748C25.3271 25.152 24.8576 25.6216 24.2804 25.6216Z" fill="black"/>
<path d="M18.5891 15.6388C18.5891 13.9073 17.1804 12.4985 15.4489 12.4985C13.7173 12.4985 12.3086 13.9073 12.3086 15.6388C12.3086 17.3703 13.7173 18.7791 15.4489 18.7791C17.1804 18.7791 18.5891 17.3703 18.5891 15.6388ZM14.4021 15.6388C14.4021 15.0616 14.8717 14.592 15.4489 14.592C16.026 14.592 16.4956 15.0616 16.4956 15.6388C16.4956 16.216 16.026 16.6855 15.4489 16.6855C14.8717 16.6855 14.4021 16.216 14.4021 15.6388Z" fill="black"/>
</svg>
