<svg width="40" height="39" viewBox="0 0 40 39" fill="none" xmlns="http://www.w3.org/2000/svg">
<mask id="path-1-outside-1" maskUnits="userSpaceOnUse" x="0" y="0.242188" width="40" height="39" fill="black">
<rect fill="white" y="0.242188" width="40" height="39"/>
<path fill-rule="evenodd" clip-rule="evenodd" d="M23.0746 5.38953C23.0746 6.24034 22.8205 7.0284 22.3981 7.70042C23.9538 7.88618 25.1681 9.19832 25.1681 10.8032V10.8466L27.6227 11H33.9216C34.5166 11 35 11.8965 35 13C35 14.1035 34.5166 15 33.9216 15H32.9709L35.3255 21.0174C36.8293 21.1796 38 22.4531 38 23.9999V28.9999C38 29.506 37.8747 29.9827 37.6535 30.4009C37.5257 30.9658 37.2437 31.4715 36.8544 31.8743C36.2237 34.8041 33.6183 36.9999 30.5 36.9999C27.4264 36.9999 24.8511 34.8666 24.1739 31.9999H23.2694C22.8885 32.1558 22.4686 32.2422 22.0279 32.2422H15.7639C15.0023 34.986 12.4864 36.9999 9.5 36.9999C6.30786 36.9999 3.65315 34.6989 3.10412 31.665C2.42972 31.1153 2 30.2999 2 29.3843V27.9999V25.9999V25.2422V21.3403V19.247V16.2422V15.2422V10.8032V10.2422C2 9.49128 2.41383 8.83703 3.02586 8.49505C3.49862 8.06683 4.10298 7.78001 4.77006 7.70035C4.3478 7.02833 4.09351 6.2402 4.09351 5.38947C4.09351 4.0954 4.90641 2.98424 6.10139 2.48842C7.29434 1.99575 8.60787 2.25228 9.52378 3.16923L13.5841 7.22952L17.6444 3.1693C18.5592 2.25235 19.9416 1.99575 21.1365 2.48849C22.3315 2.98424 23.0746 4.0954 23.0746 5.38953Z"/>
</mask>
<path fill-rule="evenodd" clip-rule="evenodd" d="M23.0746 5.38953C23.0746 6.24034 22.8205 7.0284 22.3981 7.70042C23.9538 7.88618 25.1681 9.19832 25.1681 10.8032V10.8466L27.6227 11H33.9216C34.5166 11 35 11.8965 35 13C35 14.1035 34.5166 15 33.9216 15H32.9709L35.3255 21.0174C36.8293 21.1796 38 22.4531 38 23.9999V28.9999C38 29.506 37.8747 29.9827 37.6535 30.4009C37.5257 30.9658 37.2437 31.4715 36.8544 31.8743C36.2237 34.8041 33.6183 36.9999 30.5 36.9999C27.4264 36.9999 24.8511 34.8666 24.1739 31.9999H23.2694C22.8885 32.1558 22.4686 32.2422 22.0279 32.2422H15.7639C15.0023 34.986 12.4864 36.9999 9.5 36.9999C6.30786 36.9999 3.65315 34.6989 3.10412 31.665C2.42972 31.1153 2 30.2999 2 29.3843V27.9999V25.9999V25.2422V21.3403V19.247V16.2422V15.2422V10.8032V10.2422C2 9.49128 2.41383 8.83703 3.02586 8.49505C3.49862 8.06683 4.10298 7.78001 4.77006 7.70035C4.3478 7.02833 4.09351 6.2402 4.09351 5.38947C4.09351 4.0954 4.90641 2.98424 6.10139 2.48842C7.29434 1.99575 8.60787 2.25228 9.52378 3.16923L13.5841 7.22952L17.6444 3.1693C18.5592 2.25235 19.9416 1.99575 21.1365 2.48849C22.3315 2.98424 23.0746 4.0954 23.0746 5.38953Z" fill="#82BB31"/>
<path d="M22.3981 7.70042L20.7048 6.63622C20.34 7.21665 20.2979 7.94347 20.5933 8.56211C20.8887 9.18076 21.4803 9.60502 22.161 9.68631L22.3981 7.70042ZM25.1681 10.8466H23.1681C23.1681 11.9027 23.9893 12.7768 25.0434 12.8427L25.1681 10.8466ZM27.6227 11L27.498 12.9961C27.5395 12.9987 27.5811 13 27.6227 13V11ZM32.9709 15V13C32.3099 13 31.6916 13.3266 31.319 13.8725C30.9463 14.4185 30.8675 15.1133 31.1084 15.7288L32.9709 15ZM35.3255 21.0174L33.463 21.7462C33.7347 22.4404 34.3698 22.9259 35.111 23.0058L35.3255 21.0174ZM37.6535 30.4009L35.8857 29.4656C35.8032 29.6215 35.7417 29.7876 35.7027 29.9597L37.6535 30.4009ZM36.8544 31.8743L35.4162 30.4846C35.1568 30.753 34.9777 31.0886 34.8992 31.4535L36.8544 31.8743ZM24.1739 31.9999L26.1204 31.5402C25.9072 30.6375 25.1014 29.9999 24.1739 29.9999V31.9999ZM23.2694 31.9999V29.9999C23.0098 29.9999 22.7526 30.0505 22.5122 30.1488L23.2694 31.9999ZM15.7639 32.2422V30.2422C14.8653 30.2422 14.077 30.8415 13.8367 31.7073L15.7639 32.2422ZM3.10412 31.665L5.07216 31.3089C4.98723 30.8396 4.73742 30.4161 4.36776 30.1148L3.10412 31.665ZM3.02586 8.49505L4.00142 10.241C4.13335 10.1673 4.25651 10.0788 4.36853 9.97736L3.02586 8.49505ZM4.77006 7.70035L5.00721 9.68624C5.68789 9.60495 6.2795 9.18072 6.57488 8.56211C6.87025 7.9435 6.82822 7.21671 6.4635 6.63627L4.77006 7.70035ZM6.10139 2.48842L5.33796 0.639862L5.33491 0.641124L6.10139 2.48842ZM9.52378 3.16923L8.10876 4.58264L8.10957 4.58345L9.52378 3.16923ZM13.5841 7.22952L12.1699 8.64373C12.9509 9.42477 14.2172 9.42478 14.9983 8.64374L13.5841 7.22952ZM17.6444 3.1693L19.0586 4.58353L19.0602 4.5819L17.6444 3.1693ZM21.1365 2.48849L21.9029 0.641151L21.8989 0.639516L21.1365 2.48849ZM24.0915 8.76462C24.6973 7.80063 25.0746 6.64734 25.0746 5.38953H21.0746C21.0746 5.83334 20.9436 6.25617 20.7048 6.63622L24.0915 8.76462ZM27.1681 10.8032C27.1681 8.15634 25.1674 6.0169 22.6353 5.71453L22.161 9.68631C22.7401 9.75546 23.1681 10.2403 23.1681 10.8032H27.1681ZM27.1681 10.8466V10.8032H23.1681V10.8466H27.1681ZM27.7475 9.00389L25.2929 8.85048L25.0434 12.8427L27.498 12.9961L27.7475 9.00389ZM33.9216 9H27.6227V13H33.9216V9ZM37 13C37 12.1824 36.8252 11.3434 36.4443 10.637C36.1076 10.0126 35.3072 9 33.9216 9V13C33.5404 13 33.2588 12.8504 33.1059 12.7303C33.0325 12.6727 32.9861 12.6208 32.9608 12.5891C32.9352 12.5569 32.9244 12.537 32.9235 12.5354C32.9233 12.535 32.9447 12.5766 32.9653 12.6671C32.9853 12.7547 33 12.8681 33 13H37ZM33.9216 17C35.3072 17 36.1076 15.9874 36.4443 15.363C36.8252 14.6566 37 13.8176 37 13H33C33 13.1319 32.9853 13.2453 32.9653 13.3329C32.9447 13.4234 32.9233 13.465 32.9235 13.4646C32.9244 13.463 32.9352 13.4431 32.9608 13.4109C32.9861 13.3792 33.0325 13.3273 33.1059 13.2697C33.2588 13.1496 33.5404 13 33.9216 13V17ZM32.9709 17H33.9216V13H32.9709V17ZM37.188 20.2886L34.8334 14.2712L31.1084 15.7288L33.463 21.7462L37.188 20.2886ZM40 23.9999C40 21.4205 38.0484 19.2996 35.54 19.0289L35.111 23.0058C35.6101 23.0597 36 23.4856 36 23.9999H40ZM40 28.9999V23.9999H36V28.9999H40ZM39.4213 31.3362C39.7913 30.6368 40 29.8398 40 28.9999H36C36 29.1721 35.9581 29.3286 35.8857 29.4656L39.4213 31.3362ZM38.2926 33.2641C38.9274 32.6072 39.3929 31.7764 39.6042 30.8421L35.7027 29.9597C35.6586 30.1551 35.5599 30.3358 35.4162 30.4846L38.2926 33.2641ZM34.8992 31.4535C34.4627 33.4812 32.6564 34.9999 30.5 34.9999V38.9999C34.5802 38.9999 37.9848 36.127 38.8096 32.2952L34.8992 31.4535ZM30.5 34.9999C28.3747 34.9999 26.5891 33.5247 26.1204 31.5402L22.2275 32.4597C23.113 36.2086 26.4781 38.9999 30.5 38.9999V34.9999ZM23.2694 33.9999H24.1739V29.9999H23.2694V33.9999ZM22.0279 34.2422C22.7314 34.2422 23.4082 34.104 24.0267 33.851L22.5122 30.1488C22.3687 30.2075 22.2058 30.2422 22.0279 30.2422V34.2422ZM15.7639 34.2422H22.0279V30.2422H15.7639V34.2422ZM9.5 38.9999C13.4081 38.9999 16.6954 36.3642 17.691 32.7771L13.8367 31.7073C13.3092 33.6078 11.5646 34.9999 9.5 34.9999V38.9999ZM1.13609 32.0211C1.85428 35.9898 5.32354 38.9999 9.5 38.9999V34.9999C7.29217 34.9999 5.45202 33.4079 5.07216 31.3089L1.13609 32.0211ZM0 29.3843C0 30.949 0.738593 32.317 1.84049 33.2152L4.36776 30.1148C4.12085 29.9135 4 29.6508 4 29.3843H0ZM0 27.9999V29.3843H4V27.9999H0ZM0 25.9999V27.9999H4V25.9999H0ZM0 25.2422V25.9999H4V25.2422H0ZM0 21.3403V25.2422H4V21.3403H0ZM0 19.247V21.3403H4V19.247H0ZM0 16.2422V19.247H4V16.2422H0ZM0 15.2422V16.2422H4V15.2422H0ZM0 10.8032V15.2422H4V10.8032H0ZM0 10.2422V10.8032H4V10.2422H0ZM2.0503 6.74911C0.831418 7.43018 0 8.73774 0 10.2422H4C4 10.239 4.00034 10.2391 3.9998 10.241C3.99935 10.2426 3.99884 10.2435 3.99876 10.2437C3.99876 10.2437 3.99886 10.2435 3.99912 10.2432C3.99939 10.2428 3.99973 10.2424 4.00013 10.2421C4.00103 10.2412 4.0016 10.2409 4.00142 10.241L2.0503 6.74911ZM4.5329 5.71446C3.44264 5.84466 2.45472 6.31389 1.68319 7.01274L4.36853 9.97736C4.54251 9.81976 4.76332 9.71536 5.00721 9.68624L4.5329 5.71446ZM2.09351 5.38947C2.09351 6.64739 2.47105 7.80069 3.07661 8.76442L6.4635 6.63627C6.22454 6.25597 6.09351 5.833 6.09351 5.38947H2.09351ZM5.33491 0.641124C3.4656 1.41673 2.09351 3.21128 2.09351 5.38947H6.09351C6.09351 4.97952 6.34723 4.55174 6.86786 4.33573L5.33491 0.641124ZM10.9388 1.75583C9.44747 0.262796 7.27302 -0.15929 5.33796 0.639864L6.86482 4.33698C7.31565 4.1508 7.76827 4.24176 8.10876 4.58264L10.9388 1.75583ZM14.9983 5.8153L10.938 1.75502L8.10957 4.58345L12.1699 8.64373L14.9983 5.8153ZM16.2301 1.75508L12.1699 5.81529L14.9983 8.64374L19.0586 4.58353L16.2301 1.75508ZM21.8989 0.639516C19.9795 -0.151963 17.7319 0.249885 16.2285 1.75671L19.0602 4.5819C19.3865 4.25481 19.9036 4.14347 20.3741 4.33747L21.8989 0.639516ZM25.0746 5.38953C25.0746 3.2858 23.8437 1.4463 21.9029 0.641155L20.3701 4.33583C20.8193 4.52217 21.0746 4.905 21.0746 5.38953H25.0746Z" fill="#82BB31" mask="url(#path-1-outside-1)"/>
<path d="M37.7292 23.3648C37.7292 21.8899 36.7068 20.6498 35.3336 20.3145L33.5498 15.8549C34.7641 15.4208 35.6357 14.2591 35.6357 12.8973C35.6357 11.1658 34.2269 9.75706 32.4954 9.75706C31.6311 9.75706 26.1562 9.75706 24.9881 9.75706C24.5979 8.65692 23.6112 7.83752 22.4187 7.68874C22.8339 7.02071 23.0746 6.23334 23.0746 5.39049C23.0746 4.10515 22.3251 2.99615 21.1185 2.49636C19.9166 1.99853 18.5545 2.26189 17.6469 3.16719L13.5196 7.23536L9.45421 3.17005C8.53906 2.25484 7.2279 1.99385 6.03202 2.48924C4.83635 2.9845 4.09351 4.09622 4.09351 5.39049C4.09351 6.23334 4.33419 7.02071 4.74947 7.68874C3.20181 7.88183 2 9.20465 2 10.8038C2 11.6211 2 28.8053 2 29.6454C2 31.0388 2.91263 32.2225 4.17131 32.632C4.59658 35.0937 6.74591 36.9726 9.32727 36.9726C11.8548 36.9726 13.9694 35.1717 14.4557 32.7856C14.9153 32.7856 24.8116 32.7856 25.2735 32.7856C25.7598 35.1717 27.8744 36.9726 30.402 36.9726C32.9833 36.9726 35.1327 35.0936 35.5579 32.632C36.8166 32.2226 37.7292 31.0388 37.7292 29.6454V23.3648H37.7292ZM6.83321 4.42336C7.2099 4.2674 7.64402 4.32043 7.97396 4.65023L10.9872 7.66348H8.46007C7.20669 7.66355 6.18701 6.64387 6.18701 5.39042C6.18701 4.74144 6.68164 4.48617 6.83321 4.42336ZM4.09351 10.8038C4.09351 10.2266 4.56308 9.75706 5.14026 9.75706C7.51527 9.75706 7.98317 9.75706 10.374 9.75706V16.0376H4.09351V10.8038ZM4.09351 18.1311H10.374V20.2246H4.09351V18.1311ZM4.30411 30.2724C4.1725 30.0974 4.09351 29.8807 4.09351 29.6454V22.3181H10.374V26.6104C10.0357 26.5415 9.68568 26.5051 9.32727 26.5051C6.95037 26.5051 4.93991 28.0983 4.30411 30.2724ZM9.32727 34.8791C7.59573 34.8791 6.18701 33.4704 6.18701 31.7389C6.18701 30.0073 7.59573 28.5986 9.32727 28.5986C11.0588 28.5986 12.4675 30.0073 12.4675 31.7389C12.4675 33.4704 11.0588 34.8791 9.32727 34.8791ZM14.561 30.6921H14.4557C14.196 29.4175 13.4714 28.3101 12.4675 27.5547V9.75706C13.2251 9.75706 13.8035 9.75706 14.561 9.75706V30.6921ZM19.119 4.65567C19.1208 4.65393 19.1226 4.65211 19.1244 4.6503C19.593 4.18184 20.1559 4.3637 20.3173 4.43048C20.4731 4.49496 20.9811 4.75483 20.9811 5.39049C20.9811 6.64387 19.9614 7.66355 18.7081 7.66355H16.0674L19.119 4.65567ZM23.0746 30.6921H16.6545V22.3181H23.0746V30.6921ZM23.0746 20.2246H16.6545V18.1311H23.0746V20.2246ZM23.0746 16.0376H16.6545V9.75706C17.2568 9.75706 21.5252 9.75706 22.0279 9.75706C22.6051 9.75706 23.0746 10.2266 23.0746 10.8038C23.0746 11.3506 23.0746 15.5188 23.0746 16.0376ZM25.1681 11.8506C26.6594 11.8506 31.0195 11.8506 32.4954 11.8506C33.0726 11.8506 33.5422 12.3201 33.5422 12.8973C33.5422 13.4745 33.0726 13.9441 32.4954 13.9441C31.6758 13.9441 26.0212 13.9441 25.1681 13.9441V11.8506ZM25.1681 17.0843V16.0376H31.368L33.0429 20.2246H25.1681V17.0843ZM30.4019 34.8791C28.6704 34.8791 27.2616 33.4704 27.2616 31.7389C27.2616 30.0073 28.6704 28.5986 30.4019 28.5986C32.1334 28.5986 33.5422 30.0073 33.5422 31.7389C33.5422 33.4704 32.1334 34.8791 30.4019 34.8791ZM35.6357 24.4116H34.5889C34.0108 24.4116 33.5422 24.8803 33.5422 25.4583C33.5422 26.0364 34.0108 26.5051 34.5889 26.5051H35.6357V29.6454C35.6357 29.8807 35.5567 30.0974 35.4251 30.2724C34.7893 28.0983 32.7787 26.5051 30.4019 26.5051C27.8743 26.5051 25.7598 28.3061 25.2734 30.6921H25.1681V22.3181H34.5889C35.1661 22.3181 35.6357 22.7877 35.6357 23.3648V24.4116Z" fill="black"/>
<path d="M9.32703 32.7854C9.90513 32.7854 10.3738 32.3168 10.3738 31.7386C10.3738 31.1605 9.90513 30.6919 9.32703 30.6919C8.74892 30.6919 8.28027 31.1605 8.28027 31.7386C8.28027 32.3168 8.74892 32.7854 9.32703 32.7854Z" fill="black"/>
<path d="M30.4012 32.7854C30.9794 32.7854 31.448 32.3168 31.448 31.7386C31.448 31.1605 30.9794 30.6919 30.4012 30.6919C29.8231 30.6919 29.3545 31.1605 29.3545 31.7386C29.3545 32.3168 29.8231 32.7854 30.4012 32.7854Z" fill="black"/>
</svg>
