<svg width="17" height="14" viewBox="0 0 17 14" fill="none" xmlns="http://www.w3.org/2000/svg">
<path d="M1.40575 8.43375L1.37995 8.42811L12.4364 8.42811L8.96067 11.9115C8.79047 12.0816 8.69711 12.312 8.69711 12.5538C8.69711 12.7956 8.79047 13.0243 8.96067 13.1948L9.5015 13.7359C9.67156 13.906 9.89818 14 10.1398 14C10.3816 14 10.6084 13.9066 10.7785 13.7366L16.7366 7.77901C16.9073 7.60827 17.0007 7.38085 17 7.13891C17.0007 6.89563 16.9073 6.66807 16.7366 6.4976L10.7785 0.539505C10.6084 0.369573 10.3818 0.276077 10.1398 0.276077C9.89818 0.276077 9.67156 0.369707 9.5015 0.539505L8.96067 1.0806C8.79047 1.2504 8.69711 1.47715 8.69711 1.71895C8.69711 1.96062 8.79047 2.17542 8.96067 2.34535L12.4756 5.84823L1.39339 5.84823C0.895413 5.84823 0.476964 6.27743 0.476964 6.77513L0.476964 7.54043C0.476964 8.03814 0.907773 8.43375 1.40575 8.43375Z" fill="white"/>
</svg>
