<svg width="17" height="14" viewBox="0 0 17 14" fill="none" xmlns="http://www.w3.org/2000/svg">
<path d="M1.40184 8.43375L1.37605 8.42811L12.4325 8.42811L8.95676 11.9115C8.78656 12.0816 8.6932 12.312 8.6932 12.5538C8.6932 12.7956 8.78656 13.0243 8.95676 13.1948L9.49759 13.7359C9.66766 13.906 9.89428 14 10.1359 14C10.3777 14 10.6045 13.9066 10.7746 13.7366L16.7327 7.77901C16.9034 7.60827 16.9968 7.38085 16.9961 7.13891C16.9968 6.89563 16.9034 6.66807 16.7327 6.4976L10.7746 0.539505C10.6045 0.369573 10.3779 0.276077 10.1359 0.276077C9.89428 0.276077 9.66766 0.369707 9.49759 0.539505L8.95676 1.0806C8.78656 1.2504 8.6932 1.47715 8.6932 1.71895C8.6932 1.96062 8.78656 2.17542 8.95676 2.34535L12.4717 5.84823L1.38948 5.84823C0.891507 5.84823 0.473057 6.27743 0.473057 6.77513L0.473057 7.54043C0.473057 8.03814 0.903866 8.43375 1.40184 8.43375Z" fill="black"/>
</svg>
