<svg width="19" height="17" viewBox="0 0 19 17" fill="none" xmlns="http://www.w3.org/2000/svg">
<path d="M2.71744 10.1148L2.71745 10.1148L2.71496 10.1116C1.77567 8.87787 1.136 7.44751 1.01691 5.99636C0.806013 3.35468 2.51548 1.07373 5.04333 1.07373C6.58463 1.07373 7.92868 1.9102 8.64589 3.1715L9.52618 4.71961L10.3897 3.16211C11.0723 1.93115 12.4232 1.08905 13.9717 1.08905C16.509 1.08905 18.1941 3.36313 17.9828 6.01136C17.8646 7.45546 17.2146 8.87156 16.2819 10.1155C15.1777 11.5732 13.773 12.7434 12.2161 13.8515L12.214 13.8529L12.1981 13.864L12.1368 13.9069L11.9114 14.0645L11.1683 14.5844C10.6115 14.9739 9.95372 15.4344 9.51525 15.742C9.07513 15.4334 8.41246 14.9721 7.85207 14.5826C7.55992 14.3795 7.29508 14.1956 7.10329 14.0625L6.87605 13.9048L6.81421 13.8619L6.79811 13.8507L6.79759 13.8504C5.23652 12.7391 3.80411 11.5543 2.71744 10.1148Z" stroke="black" stroke-width="2"/>
</svg>
