<svg width="46" height="41" viewBox="0 0 46 41" fill="none" xmlns="http://www.w3.org/2000/svg">
<path d="M26.7187 24.0684L26.7188 24.0683L31.3277 19.4594H35.7207C40.9416 19.4594 45.2859 15.2129 45.2859 9.97969C45.2859 4.74652 40.9416 0.5 35.7207 0.5H25.4582C20.2312 0.5 15.9785 4.75266 15.9785 9.97969C15.9785 14.5987 19.2976 18.455 23.6754 19.2912V22.8078C23.6754 23.5275 24.1081 24.179 24.7755 24.4547C25.435 24.7294 26.2053 24.5816 26.7187 24.0684ZM25.4582 10.7623C25.0258 10.7623 24.6754 10.4119 24.6754 9.97952C24.6754 9.54716 25.0258 9.1967 25.4582 9.1967C25.8905 9.1967 26.241 9.5472 26.241 9.97952C26.241 10.4118 25.8905 10.7623 25.4582 10.7623ZM30.5895 10.7623C30.157 10.7623 29.8066 10.4119 29.8066 9.97952C29.8066 9.54716 30.157 9.1967 30.5895 9.1967C31.0218 9.1967 31.3723 9.54721 31.3723 9.97952C31.3723 10.4118 31.0218 10.7623 30.5895 10.7623ZM35.7207 10.7623C35.2883 10.7623 34.9379 10.4119 34.9379 9.97952C34.9379 9.54716 35.2883 9.1967 35.7207 9.1967C36.153 9.1967 36.5035 9.5472 36.5035 9.97952C36.5035 10.4118 36.153 10.7623 35.7207 10.7623Z" fill="#84BB2F" stroke="#84BB2F"/>
<path d="M23.7185 26.4556L23.7206 26.4542C24.1762 26.1538 24.7465 26.072 25.2716 26.2483L23.7185 26.4556ZM23.7185 26.4556L20.6935 28.4718C19.0985 27.6621 17.3569 26.323 15.8018 24.768C14.2468 23.2129 12.9077 21.4713 12.0979 19.8763L14.1142 16.8513L14.1144 16.8509C14.4189 16.3931 14.4956 15.8205 14.3215 15.2984L14.3214 15.2981L11.756 7.62001C11.756 7.61989 11.756 7.61978 11.7559 7.61967C11.5138 6.89171 10.8327 6.40088 10.0652 6.40088H4.84844C2.45325 6.40088 0.5 8.32996 0.5 10.7313C0.5 18.2782 4.08162 25.5883 9.51481 31.0044C14.948 36.4204 22.2746 39.9843 29.8205 39.9843C32.2188 39.9843 34.169 38.0341 34.169 35.6359V30.5046C34.169 29.737 33.678 29.0559 32.9498 28.8137L25.2727 26.2487L23.7185 26.4556Z" fill="#84BB2F" stroke="#84BB2F"/>
<path d="M25.4586 11.2624C26.1671 11.2624 26.7414 10.6881 26.7414 9.97959C26.7414 9.27111 26.1671 8.69678 25.4586 8.69678C24.7501 8.69678 24.1758 9.27111 24.1758 9.97959C24.1758 10.6881 24.7501 11.2624 25.4586 11.2624Z" fill="black"/>
<path d="M30.5895 11.2624C31.2979 11.2624 31.8723 10.6881 31.8723 9.97959C31.8723 9.27111 31.2979 8.69678 30.5895 8.69678C29.881 8.69678 29.3066 9.27111 29.3066 9.97959C29.3066 10.6881 29.881 11.2624 30.5895 11.2624Z" fill="black"/>
<path d="M35.7223 11.2624C36.4307 11.2624 37.0051 10.6881 37.0051 9.97959C37.0051 9.27111 36.4307 8.69678 35.7223 8.69678C35.0138 8.69678 34.4395 9.27111 34.4395 9.97959C34.4395 10.6881 35.0138 11.2624 35.7223 11.2624Z" fill="black"/>
<path d="M29.8387 39.4843C31.9507 39.4843 33.669 37.7579 33.669 35.6359V30.5046C33.669 29.9528 33.316 29.4628 32.7927 29.2879L25.1141 26.7223C24.7381 26.5968 24.3256 26.6519 23.996 26.8716L20.7305 29.0486C17.226 27.3857 13.084 23.2803 11.4365 19.8381L13.6127 16.5739C13.8324 16.2443 13.8876 15.8316 13.762 15.4558L11.1964 7.77713C11.0215 7.25374 10.5316 6.90088 9.97969 6.90088H4.84844C2.72641 6.90088 1 8.61908 1 10.7311C1 17.8188 4.22277 25.0931 9.842 30.6888C15.4551 36.2785 22.7437 39.4843 29.8387 39.4843ZM4.84844 9.4665H9.05581L11.1297 15.6733L8.91239 18.9992C8.67806 19.3507 8.63179 19.7949 8.78872 20.1871C9.64179 22.3198 11.349 24.7184 13.5957 26.9411C15.8276 29.1492 18.2379 30.8377 20.3827 31.6956C20.7748 31.8524 21.2193 31.8062 21.5707 31.5719L24.8967 29.3546L31.1033 31.4285V35.6359C31.1033 36.3552 30.5479 36.9187 29.8387 36.9187C16.3339 36.9187 3.56562 24.192 3.56562 10.7311C3.56562 10.022 4.12912 9.4665 4.84844 9.4665Z" fill="black"/>
<path d="M24.9673 23.993C25.4466 24.1915 25.9984 24.0817 26.3653 23.7149L31.1208 18.9594H35.7207C40.7192 18.9594 44.7859 14.9311 44.7859 9.97969C44.7859 5.02829 40.7192 1 35.7207 1H25.4582C20.5068 1 16.4785 5.02829 16.4785 9.97969C16.4785 14.4956 19.8295 18.2437 24.1754 18.868V22.8078C24.1754 23.3267 24.488 23.7944 24.9673 23.993ZM19.0441 9.97969C19.0441 6.44297 21.9215 3.56562 25.4582 3.56562H35.7207C39.3045 3.56562 42.2203 6.44297 42.2203 9.97969C42.2203 13.5164 39.3045 16.3938 35.7207 16.3938H30.5895C30.2492 16.3938 29.9229 16.5289 29.6824 16.7694L26.741 19.7108V17.6766C26.741 16.9681 26.1667 16.3938 25.4582 16.3938C21.9215 16.3938 19.0441 13.5164 19.0441 9.97969Z" fill="black"/>
</svg>
