<svg width="85" height="85" viewBox="0 0 85 85" fill="none" xmlns="http://www.w3.org/2000/svg">
<circle cx="42.5" cy="42.5" r="42.5" fill="#FA921F"/>
<path d="M42.5 5C21.7893 5 5 21.7893 5 42.5C5 63.2107 21.7893 80 42.5 80C63.2107 80 80 63.2107 80 42.5C79.978 21.7986 63.2016 5.02213 42.5 5ZM42.5 74.6429C24.748 74.6429 10.3571 60.252 10.3571 42.5C10.3571 24.748 24.748 10.3571 42.5 10.3571C60.252 10.3571 74.6429 24.748 74.6429 42.5C74.6238 60.2442 60.2442 74.6238 42.5 74.6429Z" fill="black"/>
<path d="M58.2932 41.3054C58.0336 40.7847 57.6116 40.3625 57.0907 40.1029L35.6621 29.3885C34.3387 28.7273 32.73 29.2639 32.0686 30.5873C31.8827 30.9594 31.786 31.3699 31.7861 31.7859V53.2146C31.7855 54.694 32.9841 55.8937 34.4635 55.8945C34.8796 55.8947 35.29 55.798 35.6621 55.612L57.0907 44.8977C58.4147 44.2378 58.9532 42.6294 58.2932 41.3054ZM37.1434 48.8807V36.1199L49.9042 42.5003L37.1434 48.8807Z" fill="black"/>
</svg>
