<svg width="17" height="14" viewBox="0 0 17 14" fill="none" xmlns="http://www.w3.org/2000/svg">
<path d="M15.5943 5.84212L15.62 5.84777L4.56359 5.84777L8.03933 2.36436C8.20953 2.1943 8.30289 1.96391 8.30289 1.72211C8.30289 1.48031 8.20953 1.25154 8.03933 1.08107L7.4985 0.539977C7.32844 0.369911 7.10182 0.275878 6.86015 0.275878C6.61835 0.275878 6.3916 0.36924 6.22153 0.539306L0.263433 6.49687C0.0926949 6.66761 -0.000666912 6.89503 4.79861e-06 7.13697C-0.000666827 7.38025 0.0926951 7.60781 0.263433 7.77828L6.22153 13.7364C6.3916 13.9063 6.61822 13.9998 6.86015 13.9998C7.10182 13.9998 7.32844 13.9062 7.49851 13.7364L8.03933 13.1953C8.20953 13.0255 8.3029 12.7987 8.3029 12.5569C8.3029 12.3153 8.20953 12.1005 8.03933 11.9305L4.52436 8.42764L15.6066 8.42764C16.1046 8.42764 16.523 7.99845 16.523 7.50074L16.523 6.73544C16.523 6.23774 16.0922 5.84212 15.5943 5.84212Z" fill="black"/>
</svg>
