<svg width="1160" height="1125" viewBox="0 0 1160 1125" fill="none" xmlns="http://www.w3.org/2000/svg">
<path d="M-493 1L76.8367 1123.02" stroke="#ECE2CA" stroke-width="2"/>
<path d="M-558 1.98083L11.8367 1124" stroke="#ECE2CA" stroke-width="2"/>
<path d="M-538 1.98083L34.7791 1124" stroke="#ECE2CA" stroke-width="2"/>
<path d="M-515 1.98083L56.7983 1124" stroke="#ECE2CA" stroke-width="2"/>
<path d="M-473 1.98083L99.7791 1124" stroke="#ECE2CA" stroke-width="2"/>
<path d="M-450 1.98083L120.817 1124" stroke="#ECE2CA" stroke-width="2"/>
<path d="M-429 1.98083L142.798 1124" stroke="#ECE2CA" stroke-width="2"/>
<path d="M-407 1.98083L163.817 1124" stroke="#ECE2CA" stroke-width="2"/>
<path d="M-386 1.98083L186.779 1124" stroke="#ECE2CA" stroke-width="2"/>
<path d="M-363 1.98083L208.798 1124" stroke="#ECE2CA" stroke-width="2"/>
<path d="M-341 1.98083L231.779 1124" stroke="#ECE2CA" stroke-width="2"/>
<path d="M-318 1.98083L252.817 1124" stroke="#ECE2CA" stroke-width="2"/>
<path d="M-297 1.98083L274.798 1124" stroke="#ECE2CA" stroke-width="2"/>
<path d="M-275 1.98083L296.798 1124" stroke="#ECE2CA" stroke-width="2"/>
<path d="M-253 1.98083L318.798 1124" stroke="#ECE2CA" stroke-width="2"/>
<path d="M-231 1.98083L341.779 1124" stroke="#ECE2CA" stroke-width="2"/>
<path d="M-208 1.98083L363.798 1124" stroke="#ECE2CA" stroke-width="2"/>
<path d="M-186 1.98083L386.779 1124" stroke="#ECE2CA" stroke-width="2"/>
<path d="M-163 1.98083L407.817 1124" stroke="#ECE2CA" stroke-width="2"/>
<path d="M-142 1.98083L429.798 1124" stroke="#ECE2CA" stroke-width="2"/>
<path d="M-120 1.98083L450.817 1124" stroke="#ECE2CA" stroke-width="2"/>
<path d="M-99 1.98083L473.779 1124" stroke="#ECE2CA" stroke-width="2"/>
<path d="M-76 1.98083L495.798 1124" stroke="#ECE2CA" stroke-width="2"/>
<path d="M-54 1.98083L516.817 1124" stroke="#ECE2CA" stroke-width="2"/>
<path d="M-33 1.98083L538.798 1124" stroke="#ECE2CA" stroke-width="2"/>
<path d="M-11 1.98083L561.779 1124" stroke="#ECE2CA" stroke-width="2"/>
<path d="M12 1.98083L582.817 1124" stroke="#ECE2CA" stroke-width="2"/>
<path d="M33 1.98083L604.798 1124" stroke="#ECE2CA" stroke-width="2"/>
<path d="M55 1.98083L625.817 1124" stroke="#ECE2CA" stroke-width="2"/>
<path d="M76 1.98083L648.779 1124" stroke="#ECE2CA" stroke-width="2"/>
<path d="M99 1.98083L670.798 1124" stroke="#ECE2CA" stroke-width="2"/>
<path d="M121 1.98083L695.741 1124" stroke="#ECE2CA" stroke-width="2"/>
<path d="M146 1.98083L717.798 1124" stroke="#ECE2CA" stroke-width="2"/>
<path d="M168 1.98083L739.798 1124" stroke="#ECE2CA" stroke-width="2"/>
<path d="M190 1.98083L761.798 1124" stroke="#ECE2CA" stroke-width="2"/>
<path d="M212 1.98083L782.817 1124" stroke="#ECE2CA" stroke-width="2"/>
<path d="M233 1.98083L805.779 1124" stroke="#ECE2CA" stroke-width="2"/>
<path d="M256 1.98083L827.798 1124" stroke="#ECE2CA" stroke-width="2"/>
<path d="M278 1.98083L850.779 1124" stroke="#ECE2CA" stroke-width="2"/>
<path d="M301 1.98083L871.817 1124" stroke="#ECE2CA" stroke-width="2"/>
<path d="M322 1.98083L893.798 1124" stroke="#ECE2CA" stroke-width="2"/>
<path d="M344 1.98083L914.817 1124" stroke="#ECE2CA" stroke-width="2"/>
<path d="M365 1.98083L937.779 1124" stroke="#ECE2CA" stroke-width="2"/>
<path d="M388 1.98083L959.798 1124" stroke="#ECE2CA" stroke-width="2"/>
<path d="M410 1.98083L982.779 1124" stroke="#ECE2CA" stroke-width="2"/>
<path d="M475 1.98083L1045.82 1124" stroke="#ECE2CA" stroke-width="2"/>
<path d="M496 1.98083L1067.8 1124" stroke="#ECE2CA" stroke-width="2"/>
<path d="M518 1.98083L1090.78 1124" stroke="#ECE2CA" stroke-width="2"/>
<path d="M564 1.98083L1135.8 1124" stroke="#ECE2CA" stroke-width="2"/>
<path d="M433 1.98083L1001.86 1124" stroke="#ECE2CA" stroke-width="2"/>
<path d="M541 1.98083L1113.78 1124" stroke="#ECE2CA" stroke-width="2"/>
<path d="M452 1.98083L1024.78 1124" stroke="#ECE2CA" stroke-width="2"/>
<path d="M586 1.98083L1158.78 1124" stroke="#ECE2CA" stroke-width="2"/>
</svg>
