<svg width="423" height="947" viewBox="0 0 423 947" fill="none" xmlns="http://www.w3.org/2000/svg">
<path d="M206.392 1L685.378 945.037" stroke="#ECE2CA" stroke-width="2"/>
<path d="M76.2139 1.96338L558.194 946" stroke="#ECE2CA" stroke-width="2"/>
<path d="M1 1.96338L482.98 946" stroke="#ECE2CA" stroke-width="2"/>
<path d="M95.501 1.96338L576.483 946" stroke="#ECE2CA" stroke-width="2"/>
<path d="M20.2847 1.96338L501.267 946" stroke="#ECE2CA" stroke-width="2"/>
<path d="M132.143 1.96338L614.123 946" stroke="#ECE2CA" stroke-width="2"/>
<path d="M56.9292 1.96338L538.909 946" stroke="#ECE2CA" stroke-width="2"/>
<path d="M113.821 1.96338L594.803 946" stroke="#ECE2CA" stroke-width="2"/>
<path d="M38.6069 1.96338L519.589 946" stroke="#ECE2CA" stroke-width="2"/>
<path d="M151.428 1.96338L631.412 946" stroke="#ECE2CA" stroke-width="2"/>
<path d="M168.785 1.96338L650.765 946" stroke="#ECE2CA" stroke-width="2"/>
<path d="M188.072 1.96338L669.054 946" stroke="#ECE2CA" stroke-width="2"/>
<path d="M222.785 1.96338L704.765 946" stroke="#ECE2CA" stroke-width="2"/>
<path d="M242.072 1.96338L723.054 946" stroke="#ECE2CA" stroke-width="2"/>
<path d="M260.394 1.96338L741.376 946" stroke="#ECE2CA" stroke-width="2"/>
<path d="M278.714 1.96338L758.698 946" stroke="#ECE2CA" stroke-width="2"/>
<path d="M296.071 1.96338L778.051 946" stroke="#ECE2CA" stroke-width="2"/>
<path d="M315.356 1.96338L796.338 946" stroke="#ECE2CA" stroke-width="2"/>
<path d="M333.678 1.96338L815.658 946" stroke="#ECE2CA" stroke-width="2"/>
<path d="M352.965 1.96338L832.949 946" stroke="#ECE2CA" stroke-width="2"/>
<path d="M370.32 1.96338L851.302 946" stroke="#ECE2CA" stroke-width="2"/>
<path d="M388.643 1.96338L869.625 946" stroke="#ECE2CA" stroke-width="2"/>
<path d="M406.965 1.96338L887.947 946" stroke="#ECE2CA" stroke-width="2"/>
</svg>
