<svg width="1440" height="748" viewBox="0 0 1440 748" fill="none" xmlns="http://www.w3.org/2000/svg">
<mask id="mask0" mask-type="alpha" maskUnits="userSpaceOnUse" x="-4" y="0" width="1444" height="748">
<rect x="-4" width="1444" height="748" fill="#C4C4C4"/>
</mask>
<g mask="url(#mask0)">
<path d="M1064 -26L1560.73 953.001" stroke="#84BB2F" stroke-opacity="0.3" stroke-width="2"/>
<path d="M852 -26L1348.73 953.001" stroke="#84BB2F" stroke-opacity="0.3" stroke-width="2"/>
<path d="M929 -25.001L1428.83 954" stroke="#84BB2F" stroke-opacity="0.3" stroke-width="2"/>
<path d="M717 -25.001L1216.83 954" stroke="#84BB2F" stroke-opacity="0.3" stroke-width="2"/>
<path d="M889 -25.001L1388.83 954" stroke="#84BB2F" stroke-opacity="0.3" stroke-width="2"/>
<path d="M677 -25.001L1176.83 954" stroke="#84BB2F" stroke-opacity="0.3" stroke-width="2"/>
<path d="M949 -25.001L1447.8 954" stroke="#84BB2F" stroke-opacity="0.3" stroke-width="2"/>
<path d="M737 -25.001L1235.8 954" stroke="#84BB2F" stroke-opacity="0.3" stroke-width="2"/>
<path d="M909 -25.001L1407.8 954" stroke="#84BB2F" stroke-opacity="0.3" stroke-width="2"/>
<path d="M697 -25.001L1195.8 954" stroke="#84BB2F" stroke-opacity="0.3" stroke-width="2"/>
<path d="M987 -25.001L1486.83 954" stroke="#84BB2F" stroke-opacity="0.3" stroke-width="2"/>
<path d="M775 -25.001L1274.83 954" stroke="#84BB2F" stroke-opacity="0.3" stroke-width="2"/>
<path d="M968 -25.001L1466.8 954" stroke="#84BB2F" stroke-opacity="0.3" stroke-width="2"/>
<path d="M756 -25.001L1254.8 954" stroke="#84BB2F" stroke-opacity="0.3" stroke-width="2"/>
<path d="M1007 -25.001L1504.76 954" stroke="#84BB2F" stroke-opacity="0.3" stroke-width="2"/>
<path d="M795 -25.001L1292.76 954" stroke="#84BB2F" stroke-opacity="0.3" stroke-width="2"/>
<path d="M1025 -25.001L1524.83 954" stroke="#84BB2F" stroke-opacity="0.3" stroke-width="2"/>
<path d="M813 -25.001L1312.83 954" stroke="#84BB2F" stroke-opacity="0.3" stroke-width="2"/>
<path d="M1045 -25.001L1543.8 954" stroke="#84BB2F" stroke-opacity="0.3" stroke-width="2"/>
<path d="M833 -25.001L1331.8 954" stroke="#84BB2F" stroke-opacity="0.3" stroke-width="2"/>
<path d="M1081 -25.001L1580.83 954" stroke="#84BB2F" stroke-opacity="0.3" stroke-width="2"/>
<path d="M869 -25.001L1368.83 954" stroke="#84BB2F" stroke-opacity="0.3" stroke-width="2"/>
<path d="M1101 -25.001L1599.8 954" stroke="#84BB2F" stroke-opacity="0.3" stroke-width="2"/>
<path d="M1120 -25.001L1618.8 954" stroke="#84BB2F" stroke-opacity="0.3" stroke-width="2"/>
<path d="M1139 -25.001L1636.76 954" stroke="#84BB2F" stroke-opacity="0.3" stroke-width="2"/>
<path d="M1157 -25.001L1656.83 954" stroke="#84BB2F" stroke-opacity="0.3" stroke-width="2"/>
<path d="M1177 -25.001L1675.8 954" stroke="#84BB2F" stroke-opacity="0.3" stroke-width="2"/>
<path d="M1196 -25.001L1695.83 954" stroke="#84BB2F" stroke-opacity="0.3" stroke-width="2"/>
<path d="M1216 -25.001L1713.76 954" stroke="#84BB2F" stroke-opacity="0.3" stroke-width="2"/>
<path d="M1234 -25.001L1732.8 954" stroke="#84BB2F" stroke-opacity="0.3" stroke-width="2"/>
<path d="M1253 -25.001L1751.8 954" stroke="#84BB2F" stroke-opacity="0.3" stroke-width="2"/>
<path d="M1272 -25.001L1770.8 954" stroke="#84BB2F" stroke-opacity="0.3" stroke-width="2"/>
<path d="M1291 -25.001L1790.83 954" stroke="#84BB2F" stroke-opacity="0.3" stroke-width="2"/>
<path d="M1311 -25.001L1809.8 954" stroke="#84BB2F" stroke-opacity="0.3" stroke-width="2"/>
<path d="M1330 -25.001L1829.83 954" stroke="#84BB2F" stroke-opacity="0.3" stroke-width="2"/>
<path d="M1350 -25.001L1848.8 954" stroke="#84BB2F" stroke-opacity="0.3" stroke-width="2"/>
<path d="M1369 -25.001L1867.8 954" stroke="#84BB2F" stroke-opacity="0.3" stroke-width="2"/>
<path d="M1388 -25.001L1885.76 954" stroke="#84BB2F" stroke-opacity="0.3" stroke-width="2"/>
<path d="M1406 -25.001L1905.83 954" stroke="#84BB2F" stroke-opacity="0.3" stroke-width="2"/>
<path d="M1426 -25.001L1924.8 954" stroke="#84BB2F" stroke-opacity="0.3" stroke-width="2"/>
</g>
</svg>
