<svg width="1440" height="1039" viewBox="0 0 1440 1039" fill="none" xmlns="http://www.w3.org/2000/svg">
<mask id="mask0" mask-type="alpha" maskUnits="userSpaceOnUse" x="-6" y="0" width="1448" height="1039">
<rect x="-5.5" y="0.5" width="1447" height="1038" fill="#C4C4C4" stroke="#ECE2CA"/>
</mask>
<g mask="url(#mask0)">
<path d="M1063 1L1559.73 980.001" stroke="#ECE2CA" stroke-width="2"/>
<path d="M928 2L1456 1036" stroke="#ECE2CA" stroke-width="2"/>
<path d="M948 1.99902L1446.8 981" stroke="#ECE2CA" stroke-width="2"/>
<path d="M986 1.99902L1485.83 981" stroke="#ECE2CA" stroke-width="2"/>
<path d="M967 1.99902L1465.8 981" stroke="#ECE2CA" stroke-width="2"/>
<path d="M1006 1.99902L1503.76 981" stroke="#ECE2CA" stroke-width="2"/>
<path d="M1024 1.99902L1523.83 981" stroke="#ECE2CA" stroke-width="2"/>
<path d="M1044 1.99902L1542.8 981" stroke="#ECE2CA" stroke-width="2"/>
<path d="M1080 1.99902L1579.83 981" stroke="#ECE2CA" stroke-width="2"/>
<path d="M1100 1.99902L1598.8 981" stroke="#ECE2CA" stroke-width="2"/>
<path d="M1119 1.99902L1617.8 981" stroke="#ECE2CA" stroke-width="2"/>
<path d="M1138 1.99902L1635.76 981" stroke="#ECE2CA" stroke-width="2"/>
<path d="M1156 1.99902L1655.83 981" stroke="#ECE2CA" stroke-width="2"/>
<path d="M1176 1.99902L1674.8 981" stroke="#ECE2CA" stroke-width="2"/>
<path d="M1195 1.99902L1694.83 981" stroke="#ECE2CA" stroke-width="2"/>
<path d="M1215 1.99902L1712.76 981" stroke="#ECE2CA" stroke-width="2"/>
<path d="M1233 1.99902L1731.8 981" stroke="#ECE2CA" stroke-width="2"/>
<path d="M1252 1.99902L1750.8 981" stroke="#ECE2CA" stroke-width="2"/>
<path d="M1271 1.99902L1769.8 981" stroke="#ECE2CA" stroke-width="2"/>
<path d="M1290 1.99902L1789.83 981" stroke="#ECE2CA" stroke-width="2"/>
<path d="M1310 1.99902L1808.8 981" stroke="#ECE2CA" stroke-width="2"/>
<path d="M1329 1.99902L1828.83 981" stroke="#ECE2CA" stroke-width="2"/>
<path d="M1349 1.99902L1847.8 981" stroke="#ECE2CA" stroke-width="2"/>
<path d="M1368 1.99902L1866.8 981" stroke="#ECE2CA" stroke-width="2"/>
<path d="M1387 1.99902L1884.76 981" stroke="#ECE2CA" stroke-width="2"/>
<path d="M1405 1.99902L1904.83 981" stroke="#ECE2CA" stroke-width="2"/>
<path d="M1425 1.99902L1923.8 981" stroke="#ECE2CA" stroke-width="2"/>
</g>
</svg>
