<svg width="1416" height="727" viewBox="0 0 1416 727" fill="none" xmlns="http://www.w3.org/2000/svg">
<path d="M29.3921 1L508.378 945.037" stroke="#ECE2CA" stroke-width="2"/>
<path d="M-100.786 1.96289L381.194 946" stroke="#ECE2CA" stroke-width="2"/>
<path d="M-176 1.96289L305.98 946" stroke="#ECE2CA" stroke-width="2"/>
<path d="M-81.499 1.96289L399.483 946" stroke="#ECE2CA" stroke-width="2"/>
<path d="M-156.715 1.96289L324.267 946" stroke="#ECE2CA" stroke-width="2"/>
<path d="M-44.8569 1.96289L437.123 946" stroke="#ECE2CA" stroke-width="2"/>
<path d="M-120.071 1.96289L361.909 946" stroke="#ECE2CA" stroke-width="2"/>
<path d="M-63.1792 1.96289L417.803 946" stroke="#ECE2CA" stroke-width="2"/>
<path d="M-138.393 1.96289L342.589 946" stroke="#ECE2CA" stroke-width="2"/>
<path d="M-25.5723 1.96289L454.412 946" stroke="#ECE2CA" stroke-width="2"/>
<path d="M-8.21484 1.96289L473.765 946" stroke="#ECE2CA" stroke-width="2"/>
<path d="M11.0723 1.96289L492.054 946" stroke="#ECE2CA" stroke-width="2"/>
<path d="M45.7847 1.96289L527.765 946" stroke="#ECE2CA" stroke-width="2"/>
<path d="M65.0718 1.96289L546.054 946" stroke="#ECE2CA" stroke-width="2"/>
<path d="M83.394 1.96289L564.376 946" stroke="#ECE2CA" stroke-width="2"/>
<path d="M101.714 1.96289L581.698 946" stroke="#ECE2CA" stroke-width="2"/>
<path d="M119.071 1.96289L601.051 946" stroke="#ECE2CA" stroke-width="2"/>
<path d="M138.356 1.96289L619.338 946" stroke="#ECE2CA" stroke-width="2"/>
<path d="M156.678 1.96289L638.658 946" stroke="#ECE2CA" stroke-width="2"/>
<path d="M175.965 1.96289L655.949 946" stroke="#ECE2CA" stroke-width="2"/>
<path d="M193.32 1.96289L674.302 946" stroke="#ECE2CA" stroke-width="2"/>
<path d="M211.643 1.96289L692.625 946" stroke="#ECE2CA" stroke-width="2"/>
<path d="M229.965 1.96289L710.947 946" stroke="#ECE2CA" stroke-width="2"/>
<path d="M248.285 1.96289L730.265 946" stroke="#ECE2CA" stroke-width="2"/>
<path d="M267.572 1.96289L748.554 946" stroke="#ECE2CA" stroke-width="2"/>
<path d="M285.894 1.96289L767.874 946" stroke="#ECE2CA" stroke-width="2"/>
<path d="M305.179 1.96289L786.161 946" stroke="#ECE2CA" stroke-width="2"/>
<path d="M323.501 1.96289L804.483 946" stroke="#ECE2CA" stroke-width="2"/>
<path d="M341.821 1.96289L821.805 946" stroke="#ECE2CA" stroke-width="2"/>
<path d="M359.178 1.96289L841.158 946" stroke="#ECE2CA" stroke-width="2"/>
<path d="M378.465 1.96289L859.447 946" stroke="#ECE2CA" stroke-width="2"/>
<path d="M396.785 1.96289L877.767 946" stroke="#ECE2CA" stroke-width="2"/>
<path d="M415.107 1.96289L896.089 946" stroke="#ECE2CA" stroke-width="2"/>
<path d="M433.43 1.96289L915.41 946" stroke="#ECE2CA" stroke-width="2"/>
<path d="M452.714 1.96289L932.698 946" stroke="#ECE2CA" stroke-width="2"/>
<path d="M470.072 1.96289L951.054 946" stroke="#ECE2CA" stroke-width="2"/>
<path d="M488.394 1.96289L969.376 946" stroke="#ECE2CA" stroke-width="2"/>
<path d="M506.714 1.96289L988.694 946" stroke="#ECE2CA" stroke-width="2"/>
<path d="M526.001 1.96289L1006.98 946" stroke="#ECE2CA" stroke-width="2"/>
<path d="M544.321 1.96289L1027.3 946" stroke="#ECE2CA" stroke-width="2"/>
<path d="M564.57 1.96289L1045.55 946" stroke="#ECE2CA" stroke-width="2"/>
<path d="M582.893 1.96289L1063.87 946" stroke="#ECE2CA" stroke-width="2"/>
<path d="M601.215 1.96289L1082.2 946" stroke="#ECE2CA" stroke-width="2"/>
<path d="M619.535 1.96289L1099.52 946" stroke="#ECE2CA" stroke-width="2"/>
<path d="M636.892 1.96289L1118.87 946" stroke="#ECE2CA" stroke-width="2"/>
<path d="M656.179 1.96289L1137.16 946" stroke="#ECE2CA" stroke-width="2"/>
<path d="M674.499 1.96289L1156.48 946" stroke="#ECE2CA" stroke-width="2"/>
<path d="M693.786 1.96289L1173.77 946" stroke="#ECE2CA" stroke-width="2"/>
<path d="M711.144 1.96289L1192.13 946" stroke="#ECE2CA" stroke-width="2"/>
<path d="M729.463 1.96289L1210.45 946" stroke="#ECE2CA" stroke-width="2"/>
<path d="M747.786 1.96289L1229.77 946" stroke="#ECE2CA" stroke-width="2"/>
<path d="M767.07 1.96289L1248.05 946" stroke="#ECE2CA" stroke-width="2"/>
<path d="M785.393 1.96289L1267.37 946" stroke="#ECE2CA" stroke-width="2"/>
<path d="M840.357 1.96289L1320.34 946" stroke="#ECE2CA" stroke-width="2"/>
<path d="M857.714 1.96289L1338.7 946" stroke="#ECE2CA" stroke-width="2"/>
<path d="M876.037 1.96289L1358.02 946" stroke="#ECE2CA" stroke-width="2"/>
<path d="M914.606 1.96289L1395.59 946" stroke="#ECE2CA" stroke-width="2"/>
<path d="M804.68 1.96289L1283.67 946" stroke="#ECE2CA" stroke-width="2"/>
<path d="M932.928 1.96289L1414.91 946" stroke="#ECE2CA" stroke-width="2"/>
<path d="M895.321 1.96289L1377.3 946" stroke="#ECE2CA" stroke-width="2"/>
<path d="M821.072 1.96289L1303.05 946" stroke="#ECE2CA" stroke-width="2"/>
</svg>
