<svg width="31" height="32" viewBox="0 0 31 32" fill="none" xmlns="http://www.w3.org/2000/svg">
<path d="M12.8211 15.6837C12.8211 17.0515 13.93 18.1604 15.2979 18.1604C16.6657 18.1604 17.7746 17.0515 17.7746 15.6837C17.7746 14.3158 16.6657 13.2069 15.2979 13.2069C13.93 13.2069 12.8211 14.3158 12.8211 15.6837Z" fill="black"/>
<path fill-rule="evenodd" clip-rule="evenodd" d="M18.4661 21.9431C20.1738 21.9431 21.5583 20.5586 21.5583 18.8509V12.5164C21.5583 10.8087 20.1738 9.42425 18.4661 9.42425H12.1316C10.4239 9.42425 9.03947 10.8087 9.03947 12.5164V18.8509C9.03947 20.5586 10.4239 21.9431 12.1316 21.9431H18.4661ZM11.2445 15.6836C11.2445 13.4487 13.0628 11.6303 15.2979 11.6303C17.5329 11.6303 19.3512 13.4486 19.3512 15.6836C19.3512 17.9187 17.5329 19.737 15.2979 19.737C13.0628 19.737 11.2445 17.9186 11.2445 15.6836ZM19.3603 12.632C19.8967 12.632 20.3315 12.1972 20.3315 11.6608C20.3315 11.1243 19.8967 10.6895 19.3603 10.6895C18.8239 10.6895 18.389 11.1243 18.389 11.6608C18.389 12.1972 18.8239 12.632 19.3603 12.632Z" fill="black"/>
<path fill-rule="evenodd" clip-rule="evenodd" d="M31 15.8848C31 24.4472 24.0625 31.3848 15.5 31.3848C6.93754 31.3848 0 24.4472 0 15.8848C0 7.32231 6.93754 0.384766 15.5 0.384766C24.0625 0.384766 31 7.32231 31 15.8848ZM12.1316 7.84765H18.4661C21.0404 7.84765 23.1348 9.94205 23.1349 12.5164V18.8509C23.1349 21.4253 21.0405 23.5197 18.4661 23.5197H12.1316C9.55727 23.5197 7.46286 21.4253 7.46286 18.8509V12.5164C7.46286 9.94205 9.55727 7.84765 12.1316 7.84765Z" fill="black"/>
</svg>
