<svg width="31" height="32" viewBox="0 0 31 32" fill="none" xmlns="http://www.w3.org/2000/svg">
<path d="M15.5 31.2422C24.0625 31.2422 31 24.3046 31 15.7422C31 7.17973 24.0625 0.242188 15.5 0.242188C6.93754 0.242188 0 7.17973 0 15.7422C0 24.3046 6.93754 31.2422 15.5 31.2422ZM7.09254 15.4064L22.0371 9.64423C22.7308 9.39365 23.3365 9.81344 23.1118 10.8623L23.1131 10.861L20.5685 22.8489C20.3799 23.6989 19.8749 23.9055 19.1683 23.5051L15.2933 20.6492L13.4243 22.4498C13.2176 22.6565 13.0433 22.8309 12.6428 22.8309L12.918 18.8874L20.0996 12.3994C20.4122 12.1242 20.0299 11.9692 19.6178 12.2431L10.7428 17.8308L6.91687 16.6373C6.08633 16.3738 6.06825 15.8068 7.09254 15.4064Z" fill="black"/>
</svg>
