<svg width="31" height="32" viewBox="0 0 31 32" fill="none" xmlns="http://www.w3.org/2000/svg">
<path d="M15.5 0.242188C6.9409 0.242188 0 7.18308 0 15.7422C0 24.3013 6.9409 31.2422 15.5 31.2422C24.0591 31.2422 31 24.3013 31 15.7422C31 7.18308 24.0591 0.242188 15.5 0.242188ZM15.8285 24.7667C15.8283 24.7667 15.8288 24.7667 15.8285 24.7667H15.8247C14.272 24.766 12.7463 24.3767 11.3913 23.6379L6.47355 24.9276L7.78973 20.1217C6.97779 18.7154 6.55065 17.1199 6.55136 15.4853C6.55349 10.372 10.7151 6.21197 15.8285 6.21197C18.31 6.21291 20.6394 7.17883 22.3908 8.93161C24.1424 10.6846 25.1064 13.0147 25.1054 15.4927C25.1033 20.6063 20.9412 24.7667 15.8285 24.7667Z" fill="black"/>
<path d="M15.8312 7.77832C11.5781 7.77832 8.11908 11.2359 8.11719 15.486C8.11671 16.9424 8.52446 18.3608 9.2962 19.588L9.47949 19.8797L8.70042 22.7242L11.6187 21.9588L11.9004 22.1258C13.0842 22.8282 14.4413 23.1998 15.8249 23.2003H15.8279C20.0778 23.2003 23.5368 19.7425 23.5387 15.4921C23.5394 13.4324 22.7381 11.4958 21.2823 10.0389C19.8266 8.58199 17.8905 7.77903 15.8312 7.77832ZM20.3666 18.8C20.1733 19.3411 19.2474 19.8352 18.8021 19.9019C18.4026 19.9615 17.8974 19.9863 17.3421 19.8101C17.0053 19.7032 16.5736 19.5606 16.0204 19.322C13.6953 18.3182 12.1767 15.9777 12.0608 15.823C11.9449 15.6683 11.1143 14.5664 11.1143 13.4257C11.1143 12.2853 11.7131 11.7245 11.9255 11.4927C12.1381 11.2607 12.3893 11.2028 12.5437 11.2028C12.6982 11.2028 12.8529 11.2042 12.9879 11.2108C13.1303 11.2179 13.3214 11.1566 13.5094 11.6086C13.7026 12.0727 14.1662 13.2131 14.2241 13.329C14.2821 13.4451 14.3206 13.5804 14.2435 13.7351C14.1662 13.8898 13.9093 14.2235 13.6641 14.5276C13.5612 14.6551 13.4271 14.7686 13.5624 15.0007C13.6974 15.2324 14.1629 15.9914 14.8518 16.6059C15.7373 17.3953 16.4842 17.6399 16.716 17.756C16.9476 17.8719 17.0829 17.8525 17.2181 17.6981C17.3532 17.5434 17.7976 17.0214 17.952 16.7894C18.1065 16.5574 18.2612 16.5962 18.4735 16.6735C18.6862 16.7506 19.8257 17.3114 20.0575 17.4273C20.2892 17.5434 20.4437 17.6013 20.5016 17.6981C20.5598 17.7948 20.5598 18.2586 20.3666 18.8Z" fill="black"/>
</svg>
