<svg width="31" height="32" viewBox="0 0 31 32" fill="none" xmlns="http://www.w3.org/2000/svg">
<path fill-rule="evenodd" clip-rule="evenodd" d="M31 15.7422C31 24.3026 24.0604 31.2422 15.5 31.2422C6.93958 31.2422 0 24.3026 0 15.7422C0 7.18177 6.93958 0.242188 15.5 0.242188C24.0604 0.242188 31 7.18177 31 15.7422ZM23.6938 11.1156L23.6989 11.1361C24.2108 13.4743 24.2108 15.8455 23.6989 18.1837L23.6938 18.2041C23.2796 19.8783 21.4125 21.675 19.6978 22.0487L19.6785 22.0527C18.2921 22.3172 16.8954 22.4492 15.4994 22.4492C15.0886 22.4492 14.6776 22.4364 14.2669 22.4135L12.3733 24.3818C11.9045 24.87 11.0802 24.5377 11.0802 23.8613V21.9923C9.42948 21.5209 7.70141 19.8069 7.30434 18.2041L7.29974 18.1836C6.78776 15.8455 6.78776 13.4742 7.29974 11.1361L7.30434 11.1156C7.71903 9.44142 9.58623 7.64475 11.3003 7.27099L11.3202 7.267C14.093 6.73794 16.9051 6.73794 19.6785 7.267L19.6979 7.27099C21.4125 7.64475 23.2797 9.44129 23.6938 11.1156ZM19.3797 20.5458C20.5062 20.2949 21.9238 18.9369 22.2003 17.8446C22.6617 15.7311 22.6617 13.5886 22.2004 11.4751C21.9239 10.3828 20.5068 9.02485 19.3798 8.77395C16.8049 8.28412 14.1937 8.28412 11.6182 8.77395C10.4918 9.02485 9.07467 10.3828 8.79767 11.4751C8.33685 13.5886 8.33685 15.7311 8.79767 17.8445C9.07467 18.9369 10.4918 20.2948 11.6182 20.5457L11.6191 20.5459C11.6693 20.5558 11.7059 20.5992 11.7059 20.6504V23.7465C11.7059 23.9012 11.8948 23.9776 12.0023 23.8654L13.4729 22.3561L14.8554 20.9368C14.876 20.9156 14.9044 20.9041 14.9339 20.9049C16.4188 20.946 17.9051 20.8262 19.3797 20.5458ZM17.9487 19.2737C17.8926 19.2567 17.8373 19.2414 17.7831 19.2265L17.7831 19.2265L17.783 19.2265L17.783 19.2265C17.6698 19.1952 17.5608 19.1652 17.4572 19.1223C15.869 18.4634 14.4074 17.6133 13.2497 16.3102C12.5913 15.5693 12.076 14.7327 11.6404 13.8474C11.4551 13.4708 11.296 13.081 11.1371 12.6919L11.137 12.6918L11.0823 12.5578C10.9205 12.1625 11.1588 11.7542 11.4097 11.4563C11.6452 11.1768 11.9482 10.9629 12.2764 10.8052C12.5325 10.6822 12.7851 10.7531 12.9722 10.9702C13.3765 11.4396 13.748 11.9329 14.0487 12.477C14.2337 12.8116 14.1829 13.2207 13.8477 13.4484C13.7824 13.4927 13.7218 13.5433 13.6612 13.5938L13.6612 13.5938L13.6161 13.6312C13.5495 13.686 13.4869 13.7414 13.4412 13.8155C13.3579 13.9512 13.3539 14.1114 13.4075 14.2589C13.8209 15.3948 14.5176 16.2782 15.661 16.7541L15.7099 16.7746C15.8769 16.845 16.0464 16.9166 16.2385 16.8942C16.4669 16.8675 16.5954 16.696 16.7246 16.5235C16.7951 16.4293 16.8659 16.3349 16.9532 16.2634C17.195 16.0658 17.504 16.0632 17.7644 16.228C18.0249 16.3929 18.2774 16.5698 18.5285 16.7487L18.5802 16.7856C18.8091 16.9485 19.0361 17.11 19.2474 17.2962C19.466 17.4887 19.5412 17.7411 19.4181 18.0023C19.1929 18.4807 18.865 18.8785 18.3922 19.1326C18.301 19.1815 18.1976 19.2078 18.0932 19.2344C18.0449 19.2467 17.9964 19.259 17.9487 19.2737ZM19.6536 13.7488C19.2879 11.6951 17.5816 10.3165 15.5043 10.2583L15.4879 10.2581L15.469 10.2578C15.4406 10.2574 15.4122 10.257 15.384 10.2586C15.2367 10.2666 15.1061 10.3897 15.1337 10.5444C15.1647 10.7187 15.3399 10.7364 15.4843 10.7509L15.5093 10.7535C15.5823 10.7611 15.6556 10.7675 15.7288 10.7738L15.7289 10.7738L15.7291 10.7738C15.8913 10.7878 16.0534 10.8018 16.2131 10.8303C17.7534 11.105 18.9874 12.3853 19.2024 13.9328C19.2349 14.1666 19.2509 14.4029 19.2669 14.639L19.2669 14.6397C19.271 14.6993 19.275 14.7589 19.2793 14.8184C19.2902 14.9677 19.3651 15.107 19.5316 15.105C19.6928 15.103 19.7774 14.9611 19.7658 14.8117L19.7556 14.6796C19.7319 14.368 19.7081 14.0554 19.6536 13.7488ZM18.6586 14.3636C18.6582 14.3676 18.6578 14.3721 18.6574 14.3769V14.3769C18.6547 14.4077 18.6508 14.4524 18.6395 14.4952C18.5844 14.7037 18.2681 14.7298 18.1954 14.5194C18.1737 14.457 18.1705 14.3859 18.1704 14.3187C18.1697 13.8788 18.0741 13.4392 17.8522 13.0563C17.6241 12.6629 17.2756 12.3322 16.867 12.132C16.6198 12.011 16.3526 11.9357 16.0817 11.891C16.0082 11.8788 15.9343 11.8697 15.8603 11.8605C15.8151 11.8549 15.7699 11.8493 15.7247 11.843C15.5806 11.8229 15.5036 11.7311 15.5105 11.5891C15.5168 11.456 15.6141 11.3601 15.7592 11.3684C16.2359 11.3954 16.6964 11.4986 17.1203 11.723C17.9821 12.1795 18.4745 12.8998 18.6182 13.8619C18.6206 13.8775 18.6234 13.8932 18.6262 13.9088C18.6313 13.9366 18.6363 13.9643 18.6384 13.9923C18.6442 14.0695 18.6485 14.1467 18.6535 14.2366L18.6535 14.237L18.6599 14.3508C18.6595 14.3544 18.659 14.3587 18.6586 14.3636ZM17.0846 14.0481C17.1025 14.2073 17.1955 14.3036 17.3693 14.3005C17.4484 14.2951 17.5295 14.2402 17.5551 14.1308C17.5695 14.0684 17.5635 13.9998 17.5577 13.9345L17.5572 13.9291C17.4751 12.981 16.8995 12.5646 16.0941 12.5065C15.9652 12.4971 15.8505 12.5891 15.8308 12.7071C15.809 12.8366 15.8854 12.9485 16.0235 12.9823C16.083 12.9969 16.1437 13.0024 16.2044 13.0079C16.2735 13.0142 16.3427 13.0205 16.4105 13.0401C16.5109 13.0692 16.6067 13.1141 16.6912 13.1756C16.8703 13.3061 16.9835 13.5034 17.0357 13.7163C17.0587 13.8099 17.0692 13.9069 17.0796 14.0033C17.0813 14.0182 17.0829 14.0332 17.0846 14.0481Z" fill="black"/>
</svg>
